<?xml version="1.0" encoding="UTF-8" standalone="no"?>
<!-- Created with Inkscape (http://www.inkscape.org/) -->

<svg
   xmlns:dc="http://purl.org/dc/elements/1.1/"
   xmlns:cc="http://creativecommons.org/ns#"
   xmlns:rdf="http://www.w3.org/1999/02/22-rdf-syntax-ns#"
   xmlns:svg="http://www.w3.org/2000/svg"
   xmlns="http://www.w3.org/2000/svg"
   version="1.1"
   width="361.26926"
   height="120"
   id="svg2">
  <defs
     id="defs4" />
  <metadata
     id="metadata7">
    <rdf:RDF>
      <cc:Work
         rdf:about="">
        <dc:format>image/svg+xml</dc:format>
        <dc:type
           rdf:resource="http://purl.org/dc/dcmitype/StillImage" />
        <dc:title></dc:title>
      </cc:Work>
    </rdf:RDF>
  </metadata>
  <g
     transform="translate(-149.05188,-480.89344)"
     id="layer1">
    <g
       transform="matrix(0.60759494,0,0,0.60759494,92.545549,424.08331)"
       id="g3562">
      <g
         transform="translate(328.724,128.19)"
         id="g3528"
         style="fill:#e20010;fill-rule:nonzero;stroke:none">
        <path
           d="m 48.644,108.933 c -2.225,1.57 -6.78,2.916 -11.729,2.916 -9.084,0 -13.171,-6.976 -13.002,-15.09 0.143,-6.724 4.333,-14.345 15.68,-14.345 0,0 9.051,-0.004 9.051,-0.004 0,0 0,26.523 0,26.523 z M 39.303,34.352 c -10.781,0 -20.483,3.048 -30.453,8 0,0 -2.545,1.312 -2.545,1.312 0,0 6.07,13.544 6.07,13.544 0,0 3.422,-1.618 3.422,-1.618 7.06,-3.159 14.581,-5.278 21.345,-4.995 8.187,0.341 11.535,4.094 11.535,11.926 0,0 0,4.595 0,4.595 0,0 -13.385,0 -13.385,0 -21.516,0 -34.904,11.407 -35.292,29.115 0,16.829 14.032,31.315 33.538,31.315 15.74,0 29.077,-5.106 38.063,-14.108 0,0 0,-48.021 0,-48.021 0,-23.383 -16.694,-31.065 -32.298,-31.065 z m 319.562,77.437 c 0,0 0,14.202 0,14.202 0,0 -4.768,0.911 -8.631,0.911 -18.035,0 -28.803,-8.497 -28.803,-28.337 0,0 0,-83.676 0,-83.676 0,0 22.647,-3.858 22.647,-3.858 0,0 0,89.001 0,89.001 0,6.876 1.976,10.991 11.381,11.723 1.283,0.094 3.406,0.034 3.406,0.034 z m -99.332,-42.25 c 0.383,-8.715 4.01,-17.673 12.931,-17.673 10.038,0 11.52,10.891 11.52,17.673 0,0 -24.451,0 -24.451,0 z m 17.814,42.147 c -6.193,0 -10.371,-2.031 -13.111,-4.987 -4.066,-4.39 -5.867,-13.416 -5.377,-23.011 0,0 48.705,0 48.705,0 0,0 0,-2.239 0,-2.239 -0.434,-31.883 -11.305,-46.406 -35.1,-46.406 -26.56,0 -36.904,24.431 -37.099,47.387 -0.162,14.523 5.314,29.145 15.328,37.474 6.1,5.066 14.559,7.875 24.361,7.875 5.34,0 10.924,-0.795 16.014,-2.372 9.771,-3.027 16.982,-8.258 16.982,-8.258 0,0 -6.369,-13.108 -6.369,-13.108 -1.148,0.865 -10.902,7.645 -24.334,7.645 z m -49.922,0.185 c 0,0 0,13.999 0,13.999 0,0 -4.177,0.829 -8.611,0.829 -18.447,0 -29.453,-8.907 -29.453,-27.739 0,0 0,-84.086 0,-84.086 0,0 23.156,-3.718 23.156,-3.718 0,0 0,24.841 0,24.841 0,0 14.901,0 14.901,0 0,0 0,16.604 0,16.604 0,0 -14.901,0 -14.901,0 0,0 0,47.314 0,47.314 0,6.194 1.912,11.547 11.625,11.888 1.313,0.046 3.037,0.046 3.283,0.068 z M 88.515,39.636 c 0,0 22.592,-3.687 22.592,-3.687 0,0 0,89.968 0,89.968 0,0 -22.592,0 -22.592,0 0,0 0,-86.281 0,-86.281 z M 100.043,0 c 3.929,0 7.566,1.531 10.238,4.304 2.639,2.751 4.033,6.353 3.914,10.15 0,8.003 -6.305,14.297 -14.354,14.297 -8.035,0 -14.347,-6.312 -14.347,-14.39 C 85.494,6.448 92.023,0 100.043,0 z m 83.228,37.315 c 0,0 -6.373,14.292 -6.373,14.292 0,0 -3.641,-1.165 -9.246,-0.939 -6.063,0.243 -12.441,2.809 -15.443,5.738 0,0 0,69.576 0,69.576 0,0 -23.051,0 -23.051,0 0,0 0.015,-73.91 0.015,-73.91 13.725,-14.589 28.954,-17.494 38.874,-17.494 6.851,0 12.748,1.516 15.224,2.737 z"
           id="path3530" />
      </g>
      <g
         transform="translate(93,93.5)"
         id="g3532"
         style="fill:#e20010;fill-rule:nonzero;stroke:none">
        <path
           d="m 130.75,0 c 0,0 0,0.25 0,0.25 0,0 -2,0 -2,0 0,0 0,0.25 0,0.25 0,0 -2.25,0 -2.25,0 0,0 0,0.25 0,0.25 0,0 -2,0 -2,0 0,0 0,0.25 0,0.25 0,0 -1.75,0 -1.75,0 0,0 0,0.25 0,0.25 0,0 -1.25,0 -1.25,0 0,0 0,0.25 0,0.25 0,0 -1.25,0 -1.25,0 0,0 0,0.25 0,0.25 0,0 -1.25,0 -1.25,0 0,0 0,0.25 0,0.25 0,0 -1.25,0 -1.25,0 0,0 0,0.25 0,0.25 0,0 -1.25,0 -1.25,0 0,0 0,0.25 0,0.25 0,0 -1.25,0 -1.25,0 0,0 0,0.25 0,0.25 0,0 -0.75,0 -0.75,0 0,0 0,0.25 0,0.25 0,0 -1,0 -1,0 0,0 0,0.25 0,0.25 0,0 -1,0 -1,0 0,0 0,0.25 0,0.25 0,0 -1,0 -1,0 0,0 0,0.25 0,0.25 0,0 -0.75,0 -0.75,0 0,0 0,0.25 0,0.25 0,0 -1,0 -1,0 0,0 0,0.25 0,0.25 0,0 -1,0 -1,0 0,0 0,0.25 0,0.25 0,0 -1,0 -1,0 0,0 0,0.25 0,0.25 0,0 -0.75,0 -0.75,0 0,0 0,0.25 0,0.25 0,0 -0.75,0 -0.75,0 0,0 0,0.25 0,0.25 0,0 -0.75,0 -0.75,0 0,0 0,0.25 0,0.25 0,0 -0.75,0 -0.75,0 0,0 0,0.25 0,0.25 0,0 -0.75,0 -0.75,0 0,0 0,0.25 0,0.25 0,0 -0.75,0 -0.75,0 0,0 0,0.25 0,0.25 0,0 -0.75,0 -0.75,0 0,0 0,0.25 0,0.25 0,0 -0.75,0 -0.75,0 0,0 0,0.25 0,0.25 0,0 -0.75,0 -0.75,0 0,0 0,0.25 0,0.25 0,0 -0.75,0 -0.75,0 0,0 0,0.25 0,0.25 0,0 -0.75,0 -0.75,0 0,0 0,0.25 0,0.25 0,0 -0.75,0 -0.75,0 0,0 0,0.25 0,0.25 0,0 -0.75,0 -0.75,0 0,0 0,0.25 0,0.25 0,0 -0.75,0 -0.75,0 0,0 0,0.25 0,0.25 0,0 -0.5,0 -0.5,0 0,0 0,0.25 0,0.25 0,0 -0.75,0 -0.75,0 0,0 0,0.25 0,0.25 0,0 -0.5,0 -0.5,0 0,0 0,0.25 0,0.25 0,0 -0.75,0 -0.75,0 0,0 0,0.25 0,0.25 0,0 -0.5,0 -0.5,0 0,0 0,0.25 0,0.25 0,0 -0.75,0 -0.75,0 0,0 0,0.25 0,0.25 0,0 -0.75,0 -0.75,0 0,0 0,0.25 0,0.25 0,0 -0.5,0 -0.5,0 0,0 0,0.25 0,0.25 0,0 -0.75,0 -0.75,0 0,0 0,0.25 0,0.25 0,0 -0.5,0 -0.5,0 0,0 0,0.25 0,0.25 0,0 -0.75,0 -0.75,0 0,0 0,0.25 0,0.25 0,0 -0.5,0 -0.5,0 0,0 0,0.25 0,0.25 0,0 -0.75,0 -0.75,0 0,0 0,0.25 0,0.25 0,0 -0.5,0 -0.5,0 0,0 0,0.25 0,0.25 0,0 -0.5,0 -0.5,0 0,0 0,0.25 0,0.25 0,0 -0.5,0 -0.5,0 0,0 0,0.25 0,0.25 0,0 -0.75,0 -0.75,0 0,0 0,0.25 0,0.25 0,0 -0.5,0 -0.5,0 0,0 0,0.25 0,0.25 0,0 -0.5,0 -0.5,0 0,0 0,0.25 0,0.25 0,0 -0.5,0 -0.5,0 0,0 0,0.25 0,0.25 0,0 -0.5,0 -0.5,0 0,0 0,0.25 0,0.25 0,0 -0.75,0 -0.75,0 0,0 0,0.25 0,0.25 0,0 -0.5,0 -0.5,0 0,0 0,0.25 0,0.25 0,0 -0.5,0 -0.5,0 0,0 0,0.25 0,0.25 0,0 -0.5,0 -0.5,0 0,0 0,0.25 0,0.25 0,0 -0.5,0 -0.5,0 0,0 0,0.25 0,0.25 0,0 -0.75,0 -0.75,0 0,0 0,0.25 0,0.25 0,0 -0.5,0 -0.5,0 0,0 0,0.25 0,0.25 0,0 -0.5,0 -0.5,0 0,0 0,0.25 0,0.25 0,0 -0.5,0 -0.5,0 0,0 0,0.25 0,0.25 0,0 -0.5,0 -0.5,0 0,0 0,0.25 0,0.25 0,0 -0.5,0 -0.5,0 0,0 0,0.25 0,0.25 0,0 -0.5,0 -0.5,0 0,0 0,0.25 0,0.25 0,0 -0.5,0 -0.5,0 0,0 0,0.25 0,0.25 0,0 -0.5,0 -0.5,0 0,0 0,0.25 0,0.25 0,0 -0.5,0 -0.5,0 0,0 0,0.25 0,0.25 0,0 -0.5,0 -0.5,0 0,0 0,0.25 0,0.25 0,0 -0.5,0 -0.5,0 0,0 0,0.25 0,0.25 0,0 -0.5,0 -0.5,0 0,0 0,0.25 0,0.25 0,0 -0.5,0 -0.5,0 0,0 0,0.25 0,0.25 0,0 -0.5,0 -0.5,0 0,0 0,0.25 0,0.25 0,0 -0.5,0 -0.5,0 0,0 0,0.25 0,0.25 0,0 -0.5,0 -0.5,0 0,0 0,0.25 0,0.25 0,0 -0.25,0 -0.25,0 0,0 0,0.25 0,0.25 0,0 -0.5,0 -0.5,0 0,0 0,0.25 0,0.25 0,0 -0.5,0 -0.5,0 0,0 0,0.25 0,0.25 0,0 -0.5,0 -0.5,0 0,0 0,0.25 0,0.25 0,0 -0.5,0 -0.5,0 0,0 0,0.25 0,0.25 0,0 -0.5,0 -0.5,0 0,0 0,0.25 0,0.25 0,0 -0.5,0 -0.5,0 0,0 0,0.25 0,0.25 0,0 -0.25,0 -0.25,0 0,0 0,0.25 0,0.25 0,0 -0.5,0 -0.5,0 0,0 0,0.25 0,0.25 0,0 -0.5,0 -0.5,0 0,0 0,0.25 0,0.25 0,0 -0.5,0 -0.5,0 0,0 0,0.25 0,0.25 0,0 -0.25,0 -0.25,0 0,0 0,0.25 0,0.25 0,0 -0.5,0 -0.5,0 0,0 0,0.25 0,0.25 0,0 -0.5,0 -0.5,0 0,0 0,0.25 0,0.25 0,0 -0.5,0 -0.5,0 0,0 0,0.25 0,0.25 0,0 -0.25,0 -0.25,0 0,0 0,0.25 0,0.25 0,0 -0.5,0 -0.5,0 0,0 0,0.25 0,0.25 0,0 -0.5,0 -0.5,0 0,0 0,0.25 0,0.25 0,0 -0.5,0 -0.5,0 0,0 0,0.25 0,0.25 0,0 -0.5,0 -0.5,0 0,0 0,0.25 0,0.25 0,0 -0.25,0 -0.25,0 0,0 0,0.25 0,0.25 0,0 -0.5,0 -0.5,0 0,0 0,0.25 0,0.25 0,0 -0.5,0 -0.5,0 0,0 0,0.25 0,0.25 0,0 -0.5,0 -0.5,0 0,0 0,0.25 0,0.25 0,0 -0.25,0 -0.25,0 0,0 0,0.25 0,0.25 0,0 -0.5,0 -0.5,0 0,0 0,0.25 0,0.25 0,0 -0.25,0 -0.25,0 0,0 0,0.25 0,0.25 0,0 -0.5,0 -0.5,0 0,0 0,0.25 0,0.25 0,0 -0.25,0 -0.25,0 0,0 0,0.25 0,0.25 0,0 -0.5,0 -0.5,0 0,0 0,0.25 0,0.25 0,0 -0.5,0 -0.5,0 0,0 0,0.25 0,0.25 0,0 -0.25,0 -0.25,0 0,0 0,0.25 0,0.25 0,0 -0.5,0 -0.5,0 0,0 0,0.25 0,0.25 0,0 -0.25,0 -0.25,0 0,0 0,0.25 0,0.25 0,0 -0.5,0 -0.5,0 0,0 0,0.25 0,0.25 0,0 -0.5,0 -0.5,0 0,0 0,0.25 0,0.25 0,0 -0.25,0 -0.25,0 0,0 0,0.25 0,0.25 0,0 -0.5,0 -0.5,0 0,0 0,0.25 0,0.25 0,0 -0.25,0 -0.25,0 0,0 0,0.25 0,0.25 0,0 -0.5,0 -0.5,0 0,0 0,0.25 0,0.25 0,0 -0.25,0 -0.25,0 0,0 0,0.25 0,0.25 0,0 -0.5,0 -0.5,0 0,0 0,0.25 0,0.25 0,0 -0.5,0 -0.5,0 0,0 0,0.25 0,0.25 0,0 -0.25,0 -0.25,0 0,0 0,0.25 0,0.25 0,0 -0.5,0 -0.5,0 0,0 0,0.25 0,0.25 0,0 -0.25,0 -0.25,0 0,0 0,0.25 0,0.25 0,0 -0.5,0 -0.5,0 0,0 0,0.25 0,0.25 0,0 -0.25,0 -0.25,0 0,0 0,0.25 0,0.25 0,0 -0.5,0 -0.5,0 0,0 0,0.25 0,0.25 0,0 -0.25,0 -0.25,0 0,0 0,0.25 0,0.25 0,0 -0.25,0 -0.25,0 0,0 0,0.25 0,0.25 0,0 -0.5,0 -0.5,0 0,0 0,0.25 0,0.25 0,0 -0.25,0 -0.25,0 0,0 0,0.25 0,0.25 0,0 -0.5,0 -0.5,0 0,0 0,0.25 0,0.25 0,0 -0.25,0 -0.25,0 0,0 0,0.25 0,0.25 0,0 -0.5,0 -0.5,0 0,0 0,0.25 0,0.25 0,0 -0.25,0 -0.25,0 0,0 0,0.25 0,0.25 0,0 -0.25,0 -0.25,0 0,0 0,0.25 0,0.25 0,0 -0.5,0 -0.5,0 0,0 0,0.25 0,0.25 0,0 -0.25,0 -0.25,0 0,0 0,0.25 0,0.25 0,0 -0.5,0 -0.5,0 0,0 0,0.25 0,0.25 0,0 -0.25,0 -0.25,0 0,0 0,0.25 0,0.25 0,0 -0.5,0 -0.5,0 0,0 0,0.25 0,0.25 0,0 -0.25,0 -0.25,0 0,0 0,0.25 0,0.25 0,0 -0.25,0 -0.25,0 0,0 0,0.25 0,0.25 0,0 -0.5,0 -0.5,0 0,0 0,0.25 0,0.25 0,0 -0.25,0 -0.25,0 0,0 0,0.25 0,0.25 0,0 -0.5,0 -0.5,0 0,0 0,0.25 0,0.25 0,0 -0.25,0 -0.25,0 0,0 0,0.25 0,0.25 0,0 -0.25,0 -0.25,0 0,0 0,0.25 0,0.25 0,0 -0.5,0 -0.5,0 0,0 0,0.25 0,0.25 0,0 -0.25,0 -0.25,0 0,0 0,0.25 0,0.25 0,0 -0.25,0 -0.25,0 0,0 0,0.25 0,0.25 0,0 -0.5,0 -0.5,0 0,0 0,0.25 0,0.25 0,0 -0.25,0 -0.25,0 0,0 0,0.25 0,0.25 0,0 -0.25,0 -0.25,0 0,0 0,0.25 0,0.25 0,0 -0.25,0 -0.25,0 0,0 0,0.25 0,0.25 0,0 -0.5,0 -0.5,0 0,0 0,0.25 0,0.25 0,0 -0.25,0 -0.25,0 0,0 0,0.25 0,0.25 0,0 -0.25,0 -0.25,0 0,0 0,0.25 0,0.25 0,0 -0.5,0 -0.5,0 0,0 0,0.25 0,0.25 0,0 -0.25,0 -0.25,0 0,0 0,0.25 0,0.25 0,0 -0.25,0 -0.25,0 0,0 0,0.25 0,0.25 0,0 -0.25,0 -0.25,0 0,0 0,0.25 0,0.25 0,0 -0.5,0 -0.5,0 0,0 0,0.25 0,0.25 0,0 -0.25,0 -0.25,0 0,0 0,0.25 0,0.25 0,0 -0.25,0 -0.25,0 0,0 0,0.25 0,0.25 0,0 -0.5,0 -0.5,0 0,0 0,0.25 0,0.25 0,0 -0.25,0 -0.25,0 0,0 0,0.25 0,0.25 0,0 -0.25,0 -0.25,0 0,0 0,0.25 0,0.25 0,0 -0.5,0 -0.5,0 0,0 0,0.25 0,0.25 0,0 -0.25,0 -0.25,0 0,0 0,0.25 0,0.25 0,0 -0.25,0 -0.25,0 0,0 0,0.25 0,0.25 0,0 -0.25,0 -0.25,0 0,0 0,0.25 0,0.25 0,0 -0.25,0 -0.25,0 0,0 0,0.25 0,0.25 0,0 -0.25,0 -0.25,0 0,0 0,0.25 0,0.25 0,0 -0.5,0 -0.5,0 0,0 0,0.25 0,0.25 0,0 -0.25,0 -0.25,0 0,0 0,0.25 0,0.25 0,0 -0.25,0 -0.25,0 0,0 0,0.25 0,0.25 0,0 -0.25,0 -0.25,0 0,0 0,0.25 0,0.25 0,0 -0.25,0 -0.25,0 0,0 0,0.25 0,0.25 0,0 -0.25,0 -0.25,0 0,0 0,0.25 0,0.25 0,0 -0.5,0 -0.5,0 0,0 0,0.25 0,0.25 0,0 -0.25,0 -0.25,0 0,0 0,0.25 0,0.25 0,0 -0.25,0 -0.25,0 0,0 0,0.25 0,0.25 0,0 -0.25,0 -0.25,0 0,0 0,0.25 0,0.25 0,0 -0.25,0 -0.25,0 0,0 0,0.25 0,0.25 0,0 -0.25,0 -0.25,0 0,0 0,0.25 0,0.25 0,0 -0.5,0 -0.5,0 0,0 0,0.25 0,0.25 0,0 -0.25,0 -0.25,0 0,0 0,0.25 0,0.25 0,0 -0.25,0 -0.25,0 0,0 0,0.25 0,0.25 0,0 -0.25,0 -0.25,0 0,0 0,0.25 0,0.25 0,0 -0.25,0 -0.25,0 0,0 0,0.25 0,0.25 0,0 -0.25,0 -0.25,0 0,0 0,0.25 0,0.25 0,0 -0.5,0 -0.5,0 0,0 0,0.25 0,0.25 0,0 -0.25,0 -0.25,0 0,0 0,0.25 0,0.25 0,0 -0.25,0 -0.25,0 0,0 0,0.25 0,0.25 0,0 -0.25,0 -0.25,0 0,0 0,0.25 0,0.25 0,0 -0.25,0 -0.25,0 0,0 0,0.25 0,0.25 0,0 -0.25,0 -0.25,0 0,0 0,0.25 0,0.25 0,0 -0.25,0 -0.25,0 0,0 0,0.25 0,0.25 0,0 -0.25,0 -0.25,0 0,0 0,0.25 0,0.25 0,0 -0.25,0 -0.25,0 0,0 0,0.25 0,0.25 0,0 -0.25,0 -0.25,0 0,0 0,0.25 0,0.25 0,0 -0.25,0 -0.25,0 0,0 0,0.25 0,0.25 0,0 -0.25,0 -0.25,0 0,0 0,0.25 0,0.25 0,0 -0.25,0 -0.25,0 0,0 0,0.25 0,0.25 0,0 -0.25,0 -0.25,0 0,0 0,0.25 0,0.25 0,0 -0.25,0 -0.25,0 0,0 0,0.25 0,0.25 0,0 -0.25,0 -0.25,0 0,0 0,0.25 0,0.25 0,0 -0.25,0 -0.25,0 0,0 0,0.25 0,0.25 0,0 -0.25,0 -0.25,0 0,0 0,0.25 0,0.25 0,0 -0.25,0 -0.25,0 0,0 0,0.25 0,0.25 0,0 -0.25,0 -0.25,0 0,0 0,0.25 0,0.25 0,0 -0.25,0 -0.25,0 0,0 0,0.25 0,0.25 0,0 -0.5,0 -0.5,0 0,0 0,0.25 0,0.25 0,0 -0.25,0 -0.25,0 0,0 0,0.25 0,0.25 0,0 -0.25,0 -0.25,0 0,0 0,0.25 0,0.25 0,0 -0.25,0 -0.25,0 0,0 0,0.25 0,0.25 0,0 -0.25,0 -0.25,0 0,0 0,0.25 0,0.25 0,0 -0.25,0 -0.25,0 0,0 0,0.25 0,0.25 0,0 -0.25,0 -0.25,0 0,0 0,0.25 0,0.25 0,0 -0.25,0 -0.25,0 0,0 0,0.25 0,0.25 0,0 -0.25,0 -0.25,0 0,0 0,0.25 0,0.25 0,0 -0.25,0 -0.25,0 0,0 0,0.25 0,0.25 0,0 -0.25,0 -0.25,0 0,0 0,0.5 0,0.5 0,0 -0.25,0 -0.25,0 0,0 0,0.25 0,0.25 0,0 -0.25,0 -0.25,0 0,0 0,0.25 0,0.25 0,0 -0.25,0 -0.25,0 0,0 0,0.25 0,0.25 0,0 -0.25,0 -0.25,0 0,0 0,0.25 0,0.25 0,0 -0.25,0 -0.25,0 0,0 0,0.25 0,0.25 0,0 -0.25,0 -0.25,0 0,0 0,0.25 0,0.25 0,0 -0.25,0 -0.25,0 0,0 0,0.25 0,0.25 0,0 -0.25,0 -0.25,0 0,0 0,0.25 0,0.25 0,0 -0.25,0 -0.25,0 0,0 0,0.25 0,0.25 0,0 -0.25,0 -0.25,0 0,0 0,0.5 0,0.5 0,0 -0.25,0 -0.25,0 0,0 0,0.25 0,0.25 0,0 -0.25,0 -0.25,0 0,0 0,0.25 0,0.25 0,0 -0.25,0 -0.25,0 0,0 0,0.25 0,0.25 0,0 -0.25,0 -0.25,0 0,0 0,0.25 0,0.25 0,0 -0.25,0 -0.25,0 0,0 0,0.25 0,0.25 0,0 -0.25,0 -0.25,0 0,0 0,0.25 0,0.25 0,0 -0.25,0 -0.25,0 0,0 0,0.25 0,0.25 0,0 -0.25,0 -0.25,0 0,0 0,0.25 0,0.25 0,0 -0.25,0 -0.25,0 0,0 0,0.5 0,0.5 0,0 -0.25,0 -0.25,0 0,0 0,0.25 0,0.25 0,0 -0.25,0 -0.25,0 0,0 0,0.25 0,0.25 0,0 -0.25,0 -0.25,0 0,0 0,0.25 0,0.25 0,0 -0.25,0 -0.25,0 0,0 0,0.25 0,0.25 0,0 -0.25,0 -0.25,0 0,0 0,0.25 0,0.25 0,0 -0.25,0 -0.25,0 0,0 0,0.5 0,0.5 0,0 -0.25,0 -0.25,0 0,0 0,0.25 0,0.25 0,0 -0.25,0 -0.25,0 0,0 0,0.25 0,0.25 0,0 -0.25,0 -0.25,0 0,0 0,0.5 0,0.5 0,0 -0.25,0 -0.25,0 0,0 0,0.25 0,0.25 0,0 -0.25,0 -0.25,0 0,0 0,0.25 0,0.25 0,0 -0.25,0 -0.25,0 0,0 0,0.25 0,0.25 0,0 -0.25,0 -0.25,0 0,0 0,0.5 0,0.5 0,0 -0.25,0 -0.25,0 0,0 0,0.25 0,0.25 0,0 -0.25,0 -0.25,0 0,0 0,0.25 0,0.25 0,0 -0.25,0 -0.25,0 0,0 0,0.5 0,0.5 0,0 -0.25,0 -0.25,0 0,0 0,0.25 0,0.25 0,0 -0.25,0 -0.25,0 0,0 0,0.25 0,0.25 0,0 -0.25,0 -0.25,0 0,0 0,0.25 0,0.25 0,0 -0.25,0 -0.25,0 0,0 0,0.5 0,0.5 0,0 -0.25,0 -0.25,0 0,0 0,0.25 0,0.25 0,0 -0.25,0 -0.25,0 0,0 0,0.25 0,0.25 0,0 -0.25,0 -0.25,0 0,0 0,0.5 0,0.5 0,0 -0.25,0 -0.25,0 0,0 0,0.25 0,0.25 0,0 -0.25,0 -0.25,0 0,0 0,0.25 0,0.25 0,0 -0.25,0 -0.25,0 0,0 0,0.5 0,0.5 0,0 -0.25,0 -0.25,0 0,0 0,0.25 0,0.25 0,0 -0.25,0 -0.25,0 0,0 0,0.5 0,0.5 0,0 -0.25,0 -0.25,0 0,0 0,0.25 0,0.25 0,0 -0.25,0 -0.25,0 0,0 0,0.25 0,0.25 0,0 -0.25,0 -0.25,0 0,0 0,0.5 0,0.5 0,0 -0.25,0 -0.25,0 0,0 0,0.25 0,0.25 0,0 -0.25,0 -0.25,0 0,0 0,0.5 0,0.5 0,0 -0.25,0 -0.25,0 0,0 0,0.25 0,0.25 0,0 -0.25,0 -0.25,0 0,0 0,0.5 0,0.5 0,0 -0.25,0 -0.25,0 0,0 0,0.5 0,0.5 0,0 -0.25,0 -0.25,0 0,0 0,0.25 0,0.25 0,0 -0.25,0 -0.25,0 0,0 0,0.5 0,0.5 0,0 -0.25,0 -0.25,0 0,0 0,0.25 0,0.25 0,0 -0.25,0 -0.25,0 0,0 0,0.5 0,0.5 0,0 -0.25,0 -0.25,0 0,0 0,0.5 0,0.5 0,0 -0.25,0 -0.25,0 0,0 0,0.25 0,0.25 0,0 -0.25,0 -0.25,0 0,0 0,0.5 0,0.5 0,0 -0.25,0 -0.25,0 0,0 0,0.25 0,0.25 0,0 -0.25,0 -0.25,0 0,0 0,0.5 0,0.5 0,0 -0.25,0 -0.25,0 0,0 0,0.5 0,0.5 0,0 -0.25,0 -0.25,0 0,0 0,0.5 0,0.5 0,0 -0.25,0 -0.25,0 0,0 0,0.5 0,0.5 0,0 -0.25,0 -0.25,0 0,0 0,0.25 0,0.25 0,0 -0.25,0 -0.25,0 0,0 0,0.5 0,0.5 0,0 -0.25,0 -0.25,0 0,0 0,0.5 0,0.5 0,0 -0.25,0 -0.25,0 0,0 0,0.5 0,0.5 0,0 -0.25,0 -0.25,0 0,0 0,0.5 0,0.5 0,0 -0.25,0 -0.25,0 0,0 0,0.5 0,0.5 0,0 -0.25,0 -0.25,0 0,0 0,0.5 0,0.5 0,0 -0.25,0 -0.25,0 0,0 0,0.5 0,0.5 0,0 -0.25,0 -0.25,0 0,0 0,0.5 0,0.5 0,0 -0.25,0 -0.25,0 0,0 0,0.5 0,0.5 0,0 -0.25,0 -0.25,0 0,0 0,0.75 0,0.75 0,0 -0.25,0 -0.25,0 0,0 0,0.5 0,0.5 0,0 -0.25,0 -0.25,0 0,0 0,0.5 0,0.5 0,0 -0.25,0 -0.25,0 0,0 0,0.75 0,0.75 0,0 -0.25,0 -0.25,0 0,0 0,0.5 0,0.5 0,0 -0.25,0 -0.25,0 0,0 0,0.75 0,0.75 0,0 -0.25,0 -0.25,0 0,0 0,0.75 0,0.75 0,0 -0.25,0 -0.25,0 0,0 0,0.5 0,0.5 0,0 -0.25,0 -0.25,0 0,0 0,1 0,1 0,0 -0.25,0 -0.25,0 0,0 0,0.75 0,0.75 0,0 -0.25,0 -0.25,0 0,0 0,0.75 0,0.75 0,0 -0.25,0 -0.25,0 0,0 0,1 0,1 0,0 -0.25,0 -0.25,0 0,0 0,1.25 0,1.25 0,0 -0.25,0 -0.25,0 0,0 0,1 0,1 0,0 -0.25,0 -0.25,0 0,0 0,1.75 0,1.75 0,0 -0.25,0 -0.25,0 0,0 0,3 0,3 0,0 -0.25,0 -0.25,0 0,0 0,2.75 0,2.75 0,0 0.25,0 0.25,0 0,0 0,2.5 0,2.5 0,0 0.25,0 0.25,0 0,0 0,1.25 0,1.25 0,0 0.25,0 0.25,0 0,0 0,1 0,1 0,0 0.25,0 0.25,0 0,0 0,1 0,1 0,0 0.25,0 0.25,0 0,0 0,0.75 0,0.75 0,0 0.25,0 0.25,0 0,0 0,0.75 0,0.75 0,0 0.25,0 0.25,0 0,0 0,0.75 0,0.75 0,0 0.25,0 0.25,0 0,0 0,0.5 0,0.5 0,0 0.25,0 0.25,0 0,0 0,0.5 0,0.5 0,0 0.25,0 0.25,0 0,0 0,0.5 0,0.5 0,0 0.25,0 0.25,0 0,0 0,0.5 0,0.5 0,0 0.25,0 0.25,0 0,0 0,0.5 0,0.5 0,0 0.25,0 0.25,0 0,0 0,0.5 0,0.5 0,0 0.25,0 0.25,0 0,0 0,0.5 0,0.5 0,0 0.25,0 0.25,0 0,0 0,0.25 0,0.25 0,0 0.25,0 0.25,0 0,0 0,0.5 0,0.5 0,0 0.25,0 0.25,0 0,0 0,0.25 0,0.25 0,0 0.25,0 0.25,0 0,0 0,0.5 0,0.5 0,0 0.25,0 0.25,0 0,0 0,0.25 0,0.25 0,0 0.25,0 0.25,0 0,0 0,0.5 0,0.5 0,0 0.25,0 0.25,0 0,0 0,0.25 0,0.25 0,0 0.25,0 0.25,0 0,0 0,0.25 0,0.25 0,0 0.25,0 0.25,0 0,0 0,0.25 0,0.25 0,0 0.25,0 0.25,0 0,0 0,0.25 0,0.25 0,0 0.25,0 0.25,0 0,0 0,0.25 0,0.25 0,0 0.25,0 0.25,0 0,0 0,0.25 0,0.25 0,0 0.25,0 0.25,0 0,0 0,0.25 0,0.25 0,0 0.25,0 0.25,0 0,0 0,0.25 0,0.25 0,0 0.25,0 0.25,0 0,0 0,0.25 0,0.25 0,0 0.25,0 0.25,0 0,0 0,0.25 0,0.25 0,0 0.25,0 0.25,0 0,0 0,0.25 0,0.25 0,0 0.25,0 0.25,0 0,0 0,0.25 0,0.25 0,0 0.25,0 0.25,0 0,0 0,0.25 0,0.25 0,0 0.25,0 0.25,0 0,0 0,0.25 0,0.25 0,0 0.25,0 0.25,0 0,0 0,0.25 0,0.25 0,0 0.25,0 0.25,0 0,0 0,0.25 0,0.25 0,0 0.25,0 0.25,0 0,0 0,0.25 0,0.25 0,0 0.25,0 0.25,0 0,0 0,0.25 0,0.25 0,0 0.25,0 0.25,0 0,0 0,0.25 0,0.25 0,0 0.5,0 0.5,0 0,0 0,0.25 0,0.25 0,0 0.25,0 0.25,0 0,0 0,0.25 0,0.25 0,0 0.5,0 0.5,0 0,0 0,0.25 0,0.25 0,0 0.25,0 0.25,0 0,0 0,0.25 0,0.25 0,0 0.5,0 0.5,0 0,0 0,0.25 0,0.25 0,0 0.25,0 0.25,0 0,0 0,0.25 0,0.25 0,0 0.5,0 0.5,0 0,0 0,0.25 0,0.25 0,0 0.25,0 0.25,0 0,0 0,0.25 0,0.25 0,0 0.5,0 0.5,0 0,0 0,0.25 0,0.25 0,0 0.25,0 0.25,0 0,0 0,0.25 0,0.25 0,0 0.5,0 0.5,0 0,0 0,0.25 0,0.25 0,0 0.25,0 0.25,0 0,0 0,0.25 0,0.25 0,0 0.5,0 0.5,0 0,0 0,0.25 0,0.25 0,0 0.5,0 0.5,0 0,0 0,0.25 0,0.25 0,0 0.75,0 0.75,0 0,0 0,0.25 0,0.25 0,0 0.5,0 0.5,0 0,0 0,0.25 0,0.25 0,0 0.5,0 0.5,0 0,0 0,0.25 0,0.25 0,0 0.75,0 0.75,0 0,0 0,0.25 0,0.25 0,0 0.5,0 0.5,0 0,0 0,0.25 0,0.25 0,0 0.5,0 0.5,0 0,0 0,0.25 0,0.25 0,0 1,0 1,0 0,0 0,0.25 0,0.25 0,0 1.25,0 1.25,0 0,0 0,0.25 0,0.25 0,0 1.25,0 1.25,0 0,0 0,0.25 0,0.25 0,0 1.25,0 1.25,0 0,0 0,0.25 0,0.25 0,0 6.25,0 6.25,0 0,0 0,-0.25 0,-0.25 0,0 1.75,0 1.75,0 0,0 0,-0.25 0,-0.25 0,0 1.5,0 1.5,0 0,0 0,-0.25 0,-0.25 0,0 1,0 1,0 0,0 0,-0.25 0,-0.25 0,0 1,0 1,0 0,0 0,-0.25 0,-0.25 0,0 0.75,0 0.75,0 0,0 0,-0.25 0,-0.25 0,0 0.75,0 0.75,0 0,0 0,-0.25 0,-0.25 0,0 1,0 1,0 0,0 0,-0.25 0,-0.25 0,0 0.75,0 0.75,0 0,0 0,-0.25 0,-0.25 0,0 0.5,0 0.5,0 0,0 0,-0.25 0,-0.25 0,0 0.75,0 0.75,0 0,0 0,-0.25 0,-0.25 0,0 0.5,0 0.5,0 0,0 0,-0.25 0,-0.25 0,0 0.5,0 0.5,0 0,0 0,-0.25 0,-0.25 0,0 0.75,0 0.75,0 0,0 0,-0.25 0,-0.25 0,0 0.5,0 0.5,0 0,0 0,-0.25 0,-0.25 0,0 0.5,0 0.5,0 0,0 0,-0.25 0,-0.25 0,0 0.5,0 0.5,0 0,0 0,-0.25 0,-0.25 0,0 0.5,0 0.5,0 0,0 0,-0.25 0,-0.25 0,0 0.5,0 0.5,0 0,0 0,-0.25 0,-0.25 0,0 0.5,0 0.5,0 0,0 0,-0.25 0,-0.25 0,0 0.5,0 0.5,0 0,0 0,-0.25 0,-0.25 0,0 0.5,0 0.5,0 0,0 0,-0.25 0,-0.25 0,0 0.5,0 0.5,0 0,0 0,-0.25 0,-0.25 0,0 0.5,0 0.5,0 0,0 0,-0.25 0,-0.25 0,0 0.5,0 0.5,0 0,0 0,-0.25 0,-0.25 0,0 0.5,0 0.5,0 0,0 0,-0.25 0,-0.25 0,0 0.25,0 0.25,0 0,0 0,-0.25 0,-0.25 0,0 0.5,0 0.5,0 0,0 0,-0.25 0,-0.25 0,0 0.25,0 0.25,0 0,0 0,-0.25 0,-0.25 0,0 0.5,0 0.5,0 0,0 0,-0.25 0,-0.25 0,0 0.5,0 0.5,0 0,0 0,-0.25 0,-0.25 0,0 0.25,0 0.25,0 0,0 0,-0.25 0,-0.25 0,0 0.5,0 0.5,0 0,0 0,-0.25 0,-0.25 0,0 0.5,0 0.5,0 0,0 0,-0.25 0,-0.25 0,0 0.25,0 0.25,0 0,0 0,-0.25 0,-0.25 0,0 0.5,0 0.5,0 0,0 0,-0.25 0,-0.25 0,0 0.25,0 0.25,0 0,0 0,-0.25 0,-0.25 0,0 0.5,0 0.5,0 0,0 0,-0.25 0,-0.25 0,0 0.25,0 0.25,0 0,0 0,-0.25 0,-0.25 0,0 0.5,0 0.5,0 0,0 0,-0.25 0,-0.25 0,0 0.25,0 0.25,0 0,0 0,-0.25 0,-0.25 0,0 0.5,0 0.5,0 0,0 0,-0.25 0,-0.25 0,0 0.25,0 0.25,0 0,0 0,-0.25 0,-0.25 0,0 0.5,0 0.5,0 0,0 0,-0.25 0,-0.25 0,0 0.25,0 0.25,0 0,0 0,-0.25 0,-0.25 0,0 0.5,0 0.5,0 0,0 0,-0.25 0,-0.25 0,0 0.25,0 0.25,0 0,0 0,-0.25 0,-0.25 0,0 0.5,0 0.5,0 0,0 0,-0.25 0,-0.25 0,0 0.25,0 0.25,0 0,0 0,-0.25 0,-0.25 0,0 0.25,0 0.25,0 0,0 0,-0.25 0,-0.25 0,0 0.5,0 0.5,0 0,0 0,-0.25 0,-0.25 0,0 0.25,0 0.25,0 0,0 0,-0.25 0,-0.25 0,0 0.25,0 0.25,0 0,0 0,-0.25 0,-0.25 0,0 0.5,0 0.5,0 0,0 0,-0.25 0,-0.25 0,0 0.25,0 0.25,0 0,0 0,-0.25 0,-0.25 0,0 0.5,0 0.5,0 0,0 0,-0.25 0,-0.25 0,0 0.25,0 0.25,0 0,0 0,-0.25 0,-0.25 0,0 0.25,0 0.25,0 0,0 0,-0.25 0,-0.25 0,0 0.5,0 0.5,0 0,0 0,-0.25 0,-0.25 0,0 0.25,0 0.25,0 0,0 0,-0.25 0,-0.25 0,0 0.25,0 0.25,0 0,0 0,-0.25 0,-0.25 0,0 0.5,0 0.5,0 0,0 0,-0.25 0,-0.25 0,0 0.25,0 0.25,0 0,0 0,-0.25 0,-0.25 0,0 0.25,0 0.25,0 0,0 0,-0.25 0,-0.25 0,0 0.5,0 0.5,0 0,0 0,-0.25 0,-0.25 0,0 0.25,0 0.25,0 0,0 0,-0.25 0,-0.25 0,0 0.25,0 0.25,0 0,0 0,-0.25 0,-0.25 0,0 0.5,0 0.5,0 0,0 0,-0.25 0,-0.25 0,0 0.25,0 0.25,0 0,0 0,-0.25 0,-0.25 0,0 0.25,0 0.25,0 0,0 0,-0.25 0,-0.25 0,0 0.5,0 0.5,0 0,0 0,-0.25 0,-0.25 0,0 0.25,0 0.25,0 0,0 0,-0.25 0,-0.25 0,0 0.25,0 0.25,0 0,0 0,-0.25 0,-0.25 0,0 0.25,0 0.25,0 0,0 0,-0.25 0,-0.25 0,0 0.5,0 0.5,0 0,0 0,-0.25 0,-0.25 0,0 0.25,0 0.25,0 0,0 0,-0.25 0,-0.25 0,0 0.25,0 0.25,0 0,0 0,-0.25 0,-0.25 0,0 0.5,0 0.5,0 0,0 0,-0.25 0,-0.25 0,0 0.25,0 0.25,0 0,0 0,-0.25 0,-0.25 0,0 0.25,0 0.25,0 0,0 0,-0.25 0,-0.25 0,0 0.5,0 0.5,0 0,0 0,-0.25 0,-0.25 0,0 0.25,0 0.25,0 0,0 0,-0.25 0,-0.25 0,0 0.25,0 0.25,0 0,0 0,-0.25 0,-0.25 0,0 0.25,0 0.25,0 0,0 0,-0.25 0,-0.25 0,0 0.5,0 0.5,0 0,0 0,-0.25 0,-0.25 0,0 0.25,0 0.25,0 0,0 0,-0.25 0,-0.25 0,0 0.25,0 0.25,0 0,0 0,-0.25 0,-0.25 0,0 0.5,0 0.5,0 0,0 0,-0.25 0,-0.25 0,0 0.25,0 0.25,0 0,0 0,-0.25 0,-0.25 0,0 0.25,0 0.25,0 0,0 0,-0.25 0,-0.25 0,0 0.5,0 0.5,0 0,0 0,-0.25 0,-0.25 0,0 0.25,0 0.25,0 0,0 0,-0.25 0,-0.25 0,0 0.25,0 0.25,0 0,0 0,-0.25 0,-0.25 0,0 0.5,0 0.5,0 0,0 0,-0.25 0,-0.25 0,0 0.25,0 0.25,0 0,0 0,-0.25 0,-0.25 0,0 0.25,0 0.25,0 0,0 0,-0.25 0,-0.25 0,0 0.5,0 0.5,0 0,0 0,-0.25 0,-0.25 0,0 0.25,0 0.25,0 0,0 0,-0.25 0,-0.25 0,0 0.25,0 0.25,0 0,0 0,-0.25 0,-0.25 0,0 0.5,0 0.5,0 0,0 0,-0.25 0,-0.25 0,0 0.25,0 0.25,0 0,0 0,-0.25 0,-0.25 0,0 0.5,0 0.5,0 0,0 0,-0.25 0,-0.25 0,0 0.25,0 0.25,0 0,0 0,-0.25 0,-0.25 0,0 0.25,0 0.25,0 0,0 0,-0.25 0,-0.25 0,0 0.5,0 0.5,0 0,0 0,-0.25 0,-0.25 0,0 0.25,0 0.25,0 0,0 0,-0.25 0,-0.25 0,0 0.5,0 0.5,0 0,0 0,-0.25 0,-0.25 0,0 0.25,0 0.25,0 0,0 0,-0.25 0,-0.25 0,0 0.5,0 0.5,0 0,0 0,-0.25 0,-0.25 0,0 0.25,0 0.25,0 0,0 0,-0.25 0,-0.25 0,0 0.5,0 0.5,0 0,0 0,-0.25 0,-0.25 0,0 0.25,0 0.25,0 0,0 0,-0.25 0,-0.25 0,0 0.5,0 0.5,0 0,0 0,-0.25 0,-0.25 0,0 0.25,0 0.25,0 0,0 0,-0.25 0,-0.25 0,0 0.25,0 0.25,0 0,0 0,-0.25 0,-0.25 0,0 0.5,0 0.5,0 0,0 0,-0.25 0,-0.25 0,0 0.25,0 0.25,0 0,0 0,-0.25 0,-0.25 0,0 0.5,0 0.5,0 0,0 0,-0.25 0,-0.25 0,0 0.25,0 0.25,0 0,0 0,-0.25 0,-0.25 0,0 0.5,0 0.5,0 0,0 0,-0.25 0,-0.25 0,0 0.25,0 0.25,0 0,0 0,-0.25 0,-0.25 0,0 0.5,0 0.5,0 0,0 0,-0.25 0,-0.25 0,0 0.25,0 0.25,0 0,0 0,-0.25 0,-0.25 0,0 0.5,0 0.5,0 0,0 0,-0.25 0,-0.25 0,0 0.25,0 0.25,0 0,0 0,-0.25 0,-0.25 0,0 0.5,0 0.5,0 0,0 0,-0.25 0,-0.25 0,0 0.25,0 0.25,0 0,0 0,-0.25 0,-0.25 0,0 0.5,0 0.5,0 0,0 0,-0.25 0,-0.25 0,0 0.25,0 0.25,0 0,0 0,-0.25 0,-0.25 0,0 0.5,0 0.5,0 0,0 0,-0.25 0,-0.25 0,0 0.25,0 0.25,0 0,0 0,-0.25 0,-0.25 0,0 0.5,0 0.5,0 0,0 0,-0.25 0,-0.25 0,0 0.25,0 0.25,0 0,0 0,-0.25 0,-0.25 0,0 0.25,0 0.25,0 0,0 0,-0.25 0,-0.25 0,0 0.5,0 0.5,0 0,0 0,-0.25 0,-0.25 0,0 0.25,0 0.25,0 0,0 0,-0.25 0,-0.25 0,0 0.5,0 0.5,0 0,0 0,-0.25 0,-0.25 0,0 0.25,0 0.25,0 0,0 0,-0.25 0,-0.25 0,0 0.5,0 0.5,0 0,0 0,-0.25 0,-0.25 0,0 0.25,0 0.25,0 0,0 0,-0.25 0,-0.25 0,0 0.5,0 0.5,0 0,0 0,-0.25 0,-0.25 0,0 0.25,0 0.25,0 0,0 0,-0.25 0,-0.25 0,0 0.5,0 0.5,0 0,0 0,-0.25 0,-0.25 0,0 0.25,0 0.25,0 0,0 0,-0.25 0,-0.25 0,0 0.5,0 0.5,0 0,0 0,-0.25 0,-0.25 0,0 0.25,0 0.25,0 0,0 0,-0.25 0,-0.25 0,0 0.5,0 0.5,0 0,0 0,-0.25 0,-0.25 0,0 0.25,0 0.25,0 0,0 0,-0.25 0,-0.25 0,0 0.5,0 0.5,0 0,0 0,-0.25 0,-0.25 0,0 0.25,0 0.25,0 0,0 0,-0.25 0,-0.25 0,0 0.5,0 0.5,0 0,0 0,-0.25 0,-0.25 0,0 0.25,0 0.25,0 0,0 0,-0.25 0,-0.25 0,0 0.5,0 0.5,0 0,0 0,-0.25 0,-0.25 0,0 0.25,0 0.25,0 0,0 0,-0.25 0,-0.25 0,0 0.5,0 0.5,0 0,0 0,-0.25 0,-0.25 0,0 0.25,0 0.25,0 0,0 0,-0.25 0,-0.25 0,0 0.5,0 0.5,0 0,0 0,-0.25 0,-0.25 0,0 0.25,0 0.25,0 0,0 0,-0.25 0,-0.25 0,0 0.5,0 0.5,0 0,0 0,-0.25 0,-0.25 0,0 0.25,0 0.25,0 0,0 0,-0.25 0,-0.25 0,0 0.5,0 0.5,0 0,0 0,-0.25 0,-0.25 0,0 0.25,0 0.25,0 0,0 0,-0.25 0,-0.25 0,0 0.5,0 0.5,0 0,0 0,-0.25 0,-0.25 0,0 0.25,0 0.25,0 0,0 0,-0.25 0,-0.25 0,0 0.5,0 0.5,0 0,0 0,-0.25 0,-0.25 0,0 0.25,0 0.25,0 0,0 0,-0.25 0,-0.25 0,0 0.5,0 0.5,0 0,0 0,-0.25 0,-0.25 0,0 0.25,0 0.25,0 0,0 0,-0.25 0,-0.25 0,0 0.5,0 0.5,0 0,0 0,-0.25 0,-0.25 0,0 0.25,0 0.25,0 0,0 0,-0.25 0,-0.25 0,0 0.5,0 0.5,0 0,0 0,-0.25 0,-0.25 0,0 0.5,0 0.5,0 0,0 0,-0.25 0,-0.25 0,0 0.25,0 0.25,0 0,0 0,-0.25 0,-0.25 0,0 0.5,0 0.5,0 0,0 0,-0.25 0,-0.25 0,0 0.25,0 0.25,0 0,0 0,-0.25 0,-0.25 0,0 0.5,0 0.5,0 0,0 0,-0.25 0,-0.25 0,0 0.25,0 0.25,0 0,0 0,-0.25 0,-0.25 0,0 0.5,0 0.5,0 0,0 0,-0.25 0,-0.25 0,0 0.25,0 0.25,0 0,0 0,-0.25 0,-0.25 0,0 0.5,0 0.5,0 0,0 0,-0.25 0,-0.25 0,0 0.25,0 0.25,0 0,0 0,-0.25 0,-0.25 0,0 0.5,0 0.5,0 0,0 0,-0.25 0,-0.25 0,0 0.5,0 0.5,0 0,0 0,-0.25 0,-0.25 0,0 0.25,0 0.25,0 0,0 0,-0.25 0,-0.25 0,0 0.5,0 0.5,0 0,0 0,-0.25 0,-0.25 0,0 0.25,0 0.25,0 0,0 0,-0.25 0,-0.25 0,0 0.5,0 0.5,0 0,0 0,-0.25 0,-0.25 0,0 0.5,0 0.5,0 0,0 0,-0.25 0,-0.25 0,0 0.25,0 0.25,0 0,0 0,-0.25 0,-0.25 0,0 0.5,0 0.5,0 0,0 0,-0.25 0,-0.25 0,0 0.25,0 0.25,0 0,0 0,-0.25 0,-0.25 0,0 0.5,0 0.5,0 0,0 0,-0.25 0,-0.25 0,0 0.25,0 0.25,0 0,0 0,-0.25 0,-0.25 0,0 0.5,0 0.5,0 0,0 0,-0.25 0,-0.25 0,0 0.5,0 0.5,0 0,0 0,-0.25 0,-0.25 0,0 0.25,0 0.25,0 0,0 0,-0.25 0,-0.25 0,0 0.5,0 0.5,0 0,0 0,-0.25 0,-0.25 0,0 0.5,0 0.5,0 0,0 0,-0.25 0,-0.25 0,0 0.25,0 0.25,0 0,0 0,-0.25 0,-0.25 0,0 0.5,0 0.5,0 0,0 0,-0.25 0,-0.25 0,0 0.5,0 0.5,0 0,0 0,-0.25 0,-0.25 0,0 0.25,0 0.25,0 0,0 0,-0.25 0,-0.25 0,0 0.5,0 0.5,0 0,0 0,-0.25 0,-0.25 0,0 0.5,0 0.5,0 0,0 0,-0.25 0,-0.25 0,0 0.25,0 0.25,0 0,0 0,-0.25 0,-0.25 0,0 0.5,0 0.5,0 0,0 0,-0.25 0,-0.25 0,0 0.5,0 0.5,0 0,0 0,-0.25 0,-0.25 0,0 0.25,0 0.25,0 0,0 0,-0.25 0,-0.25 0,0 0.5,0 0.5,0 0,0 0,-0.25 0,-0.25 0,0 0.5,0 0.5,0 0,0 0,-0.25 0,-0.25 0,0 0.25,0 0.25,0 0,0 0,-0.25 0,-0.25 0,0 0.5,0 0.5,0 0,0 0,-0.25 0,-0.25 0,0 0.5,0 0.5,0 0,0 0,-0.25 0,-0.25 0,0 0.5,0 0.5,0 0,0 0,-0.25 0,-0.25 0,0 0.25,0 0.25,0 0,0 0,-0.25 0,-0.25 0,0 0.5,0 0.5,0 0,0 0,-0.25 0,-0.25 0,0 0.5,0 0.5,0 0,0 0,-0.25 0,-0.25 0,0 0.5,0 0.5,0 0,0 0,-0.25 0,-0.25 0,0 0.25,0 0.25,0 0,0 0,-0.25 0,-0.25 0,0 0.5,0 0.5,0 0,0 0,-0.25 0,-0.25 0,0 0.5,0 0.5,0 0,0 0,-0.25 0,-0.25 0,0 0.5,0 0.5,0 0,0 0,-0.25 0,-0.25 0,0 0.5,0 0.5,0 0,0 0,-0.25 0,-0.25 0,0 0.25,0 0.25,0 0,0 0,-0.25 0,-0.25 0,0 0.5,0 0.5,0 0,0 0,-0.25 0,-0.25 0,0 0.5,0 0.5,0 0,0 0,-0.25 0,-0.25 0,0 0.5,0 0.5,0 0,0 0,-0.25 0,-0.25 0,0 0.5,0 0.5,0 0,0 0,-0.25 0,-0.25 0,0 0.5,0 0.5,0 0,0 0,-0.25 0,-0.25 0,0 0.5,0 0.5,0 0,0 0,-0.25 0,-0.25 0,0 0.5,0 0.5,0 0,0 0,-0.25 0,-0.25 0,0 0.5,0 0.5,0 0,0 0,-0.25 0,-0.25 0,0 0.5,0 0.5,0 0,0 0,-0.25 0,-0.25 0,0 0.5,0 0.5,0 0,0 0,-0.25 0,-0.25 0,0 0.5,0 0.5,0 0,0 0,-0.25 0,-0.25 0,0 0.5,0 0.5,0 0,0 0,-0.25 0,-0.25 0,0 0.25,0 0.25,0 0,0 0,-0.25 0,-0.25 0,0 0.75,0 0.75,0 0,0 0,-0.25 0,-0.25 0,0 0.5,0 0.5,0 0,0 0,-0.25 0,-0.25 0,0 0.5,0 0.5,0 0,0 0,-0.25 0,-0.25 0,0 0.5,0 0.5,0 0,0 0,-0.25 0,-0.25 0,0 0.5,0 0.5,0 0,0 0,-0.25 0,-0.25 0,0 0.75,0 0.75,0 0,0 0,-0.25 0,-0.25 0,0 0.5,0 0.5,0 0,0 0,-0.25 0,-0.25 0,0 0.5,0 0.5,0 0,0 0,-0.25 0,-0.25 0,0 0.5,0 0.5,0 0,0 0,-0.25 0,-0.25 0,0 0.5,0 0.5,0 0,0 0,-0.25 0,-0.25 0,0 0.75,0 0.75,0 0,0 0,-0.25 0,-0.25 0,0 0.5,0 0.5,0 0,0 0,-0.25 0,-0.25 0,0 0.75,0 0.75,0 0,0 0,-0.25 0,-0.25 0,0 0.5,0 0.5,0 0,0 0,-0.25 0,-0.25 0,0 0.75,0 0.75,0 0,0 0,-0.25 0,-0.25 0,0 0.75,0 0.75,0 0,0 0,-0.25 0,-0.25 0,0 0.5,0 0.5,0 0,0 0,-0.25 0,-0.25 0,0 0.75,0 0.75,0 0,0 0,-0.25 0,-0.25 0,0 0.5,0 0.5,0 0,0 0,-0.25 0,-0.25 0,0 0.75,0 0.75,0 0,0 0,-0.25 0,-0.25 0,0 1,0 1,0 0,0 0,-0.25 0,-0.25 0,0 0.75,0 0.75,0 0,0 0,-0.25 0,-0.25 0,0 1,0 1,0 0,0 0,-0.25 0,-0.25 0,0 0.75,0 0.75,0 0,0 0,-0.25 0,-0.25 0,0 1,0 1,0 0,0 0,-0.25 0,-0.25 0,0 1,0 1,0 0,0 0,-0.25 0,-0.25 0,0 1.25,0 1.25,0 0,0 0,-0.25 0,-0.25 0,0 1.5,0 1.5,0 0,0 0,-0.25 0,-0.25 0,0 1.25,0 1.25,0 0,0 0,-0.25 0,-0.25 0,0 4.25,0 4.25,0 0,0 0,-0.25 0,-0.25 0,0 0.5,0 0.5,0 0,0 0,0.25 0,0.25 0,0 2.25,0 2.25,0 0,0 0,0.25 0,0.25 0,0 2,0 2,0 0,0 0,0.25 0,0.25 0,0 0.75,0 0.75,0 0,0 0,0.25 0,0.25 0,0 0.75,0 0.75,0 0,0 0,0.25 0,0.25 0,0 0.75,0 0.75,0 0,0 0,0.25 0,0.25 0,0 0.5,0 0.5,0 0,0 0,0.25 0,0.25 0,0 0.75,0 0.75,0 0,0 0,0.25 0,0.25 0,0 0.5,0 0.5,0 0,0 0,0.25 0,0.25 0,0 0.5,0 0.5,0 0,0 0,0.25 0,0.25 0,0 0.25,0 0.25,0 0,0 0,0.25 0,0.25 0,0 0.5,0 0.5,0 0,0 0,0.25 0,0.25 0,0 0.5,0 0.5,0 0,0 0,0.25 0,0.25 0,0 0.25,0 0.25,0 0,0 0,0.25 0,0.25 0,0 0.5,0 0.5,0 0,0 0,0.25 0,0.25 0,0 0.25,0 0.25,0 0,0 0,0.25 0,0.25 0,0 0.5,0 0.5,0 0,0 0,0.25 0,0.25 0,0 0.25,0 0.25,0 0,0 0,0.25 0,0.25 0,0 0.25,0 0.25,0 0,0 0,0.25 0,0.25 0,0 0.25,0 0.25,0 0,0 0,0.25 0,0.25 0,0 0.25,0 0.25,0 0,0 0,0.25 0,0.25 0,0 0.25,0 0.25,0 0,0 0,0.25 0,0.25 0,0 0.25,0 0.25,0 0,0 0,0.25 0,0.25 0,0 0.25,0 0.25,0 0,0 0,0.25 0,0.25 0,0 0.25,0 0.25,0 0,0 0,0.25 0,0.25 0,0 0.25,0 0.25,0 0,0 0,0.25 0,0.25 0,0 0.25,0 0.25,0 0,0 0,0.25 0,0.25 0,0 0.25,0 0.25,0 0,0 0,0.5 0,0.5 0,0 0.25,0 0.25,0 0,0 0,0.25 0,0.25 0,0 0.25,0 0.25,0 0,0 0,0.25 0,0.25 0,0 0.25,0 0.25,0 0,0 0,0.5 0,0.5 0,0 0.25,0 0.25,0 0,0 0,0.25 0,0.25 0,0 0.25,0 0.25,0 0,0 0,0.5 0,0.5 0,0 0.25,0 0.25,0 0,0 0,0.25 0,0.25 0,0 0.25,0 0.25,0 0,0 0,0.5 0,0.5 0,0 0.25,0 0.25,0 0,0 0,0.5 0,0.5 0,0 0.25,0 0.25,0 0,0 0,0.25 0,0.25 0,0 0.25,0 0.25,0 0,0 0,0.5 0,0.5 0,0 0.25,0 0.25,0 0,0 0,0.5 0,0.5 0,0 0.25,0 0.25,0 0,0 0,0.5 0,0.5 0,0 0.25,0 0.25,0 0,0 0,0.5 0,0.5 0,0 0.25,0 0.25,0 0,0 0,0.75 0,0.75 0,0 0.25,0 0.25,0 0,0 0,0.5 0,0.5 0,0 0.25,0 0.25,0 0,0 0,0.75 0,0.75 0,0 0.25,0 0.25,0 0,0 0,0.5 0,0.5 0,0 0.25,0 0.25,0 0,0 0,0.75 0,0.75 0,0 0.25,0 0.25,0 0,0 0,0.75 0,0.75 0,0 0.25,0 0.25,0 0,0 0,1 0,1 0,0 0.25,0 0.25,0 0,0 0,0.75 0,0.75 0,0 0.25,0 0.25,0 0,0 0,1 0,1 0,0 0.25,0 0.25,0 0,0 0,1.5 0,1.5 0,0 0.25,0 0.25,0 0,0 0,1.25 0,1.25 0,0 0.25,0 0.25,0 0,0 0,2.75 0,2.75 0,0 0.25,0 0.25,0 0,0 0,6.25 0,6.25 0,0 -0.25,0 -0.25,0 0,0 0,2 0,2 0,0 -0.25,0 -0.25,0 0,0 0,2.25 0,2.25 0,0 -0.25,0 -0.25,0 0,0 0,1.25 0,1.25 0,0 -0.25,0 -0.25,0 0,0 0,1.25 0,1.25 0,0 -0.25,0 -0.25,0 0,0 0,1 0,1 0,0 -0.25,0 -0.25,0 0,0 0,1.25 0,1.25 0,0 -0.25,0 -0.25,0 0,0 0,1 0,1 0,0 -0.25,0 -0.25,0 0,0 0,1 0,1 0,0 -0.25,0 -0.25,0 0,0 0,0.75 0,0.75 0,0 -0.25,0 -0.25,0 0,0 0,0.75 0,0.75 0,0 -0.25,0 -0.25,0 0,0 0,0.75 0,0.75 0,0 -0.25,0 -0.25,0 0,0 0,1 0,1 0,0 -0.25,0 -0.25,0 0,0 0,0.75 0,0.75 0,0 -0.25,0 -0.25,0 0,0 0,0.75 0,0.75 0,0 -0.25,0 -0.25,0 0,0 0,0.75 0,0.75 0,0 -0.25,0 -0.25,0 0,0 0,0.5 0,0.5 0,0 -0.25,0 -0.25,0 0,0 0,0.75 0,0.75 0,0 -0.25,0 -0.25,0 0,0 0,0.5 0,0.5 0,0 -0.25,0 -0.25,0 0,0 0,0.75 0,0.75 0,0 -0.25,0 -0.25,0 0,0 0,0.5 0,0.5 0,0 -0.25,0 -0.25,0 0,0 0,0.75 0,0.75 0,0 -0.25,0 -0.25,0 0,0 0,0.5 0,0.5 0,0 -0.25,0 -0.25,0 0,0 0,0.75 0,0.75 0,0 -0.25,0 -0.25,0 0,0 0,0.5 0,0.5 0,0 -0.25,0 -0.25,0 0,0 0,0.5 0,0.5 0,0 -0.25,0 -0.25,0 0,0 0,0.5 0,0.5 0,0 -0.25,0 -0.25,0 0,0 0,0.5 0,0.5 0,0 -0.25,0 -0.25,0 0,0 0,0.75 0,0.75 0,0 -0.25,0 -0.25,0 0,0 0,0.5 0,0.5 0,0 -0.25,0 -0.25,0 0,0 0,0.5 0,0.5 0,0 -0.25,0 -0.25,0 0,0 0,0.5 0,0.5 0,0 -0.25,0 -0.25,0 0,0 0,0.5 0,0.5 0,0 -0.25,0 -0.25,0 0,0 0,0.25 0,0.25 0,0 -0.25,0 -0.25,0 0,0 0,0.5 0,0.5 0,0 -0.25,0 -0.25,0 0,0 0,0.5 0,0.5 0,0 -0.25,0 -0.25,0 0,0 0,0.5 0,0.5 0,0 -0.25,0 -0.25,0 0,0 0,0.5 0,0.5 0,0 -0.25,0 -0.25,0 0,0 0,0.25 0,0.25 0,0 -0.25,0 -0.25,0 0,0 0,0.5 0,0.5 0,0 -0.25,0 -0.25,0 0,0 0,0.5 0,0.5 0,0 -0.25,0 -0.25,0 0,0 0,0.25 0,0.25 0,0 -0.25,0 -0.25,0 0,0 0,0.5 0,0.5 0,0 -0.25,0 -0.25,0 0,0 0,0.5 0,0.5 0,0 -0.25,0 -0.25,0 0,0 0,0.25 0,0.25 0,0 -0.25,0 -0.25,0 0,0 0,0.5 0,0.5 0,0 -0.25,0 -0.25,0 0,0 0,0.5 0,0.5 0,0 -0.25,0 -0.25,0 0,0 0,0.25 0,0.25 0,0 -0.25,0 -0.25,0 0,0 0,0.5 0,0.5 0,0 -0.25,0 -0.25,0 0,0 0,0.25 0,0.25 0,0 -0.25,0 -0.25,0 0,0 0,0.5 0,0.5 0,0 -0.25,0 -0.25,0 0,0 0,0.25 0,0.25 0,0 -0.25,0 -0.25,0 0,0 0,0.5 0,0.5 0,0 -0.25,0 -0.25,0 0,0 0,0.25 0,0.25 0,0 -0.25,0 -0.25,0 0,0 0,0.5 0,0.5 0,0 -0.25,0 -0.25,0 0,0 0,0.25 0,0.25 0,0 -0.25,0 -0.25,0 0,0 0,0.5 0,0.5 0,0 -0.25,0 -0.25,0 0,0 0,0.25 0,0.25 0,0 -0.25,0 -0.25,0 0,0 0,0.5 0,0.5 0,0 -0.25,0 -0.25,0 0,0 0,0.25 0,0.25 0,0 -0.25,0 -0.25,0 0,0 0,0.25 0,0.25 0,0 -0.25,0 -0.25,0 0,0 0,0.5 0,0.5 0,0 -0.25,0 -0.25,0 0,0 0,0.25 0,0.25 0,0 -0.25,0 -0.25,0 0,0 0,0.25 0,0.25 0,0 -0.25,0 -0.25,0 0,0 0,0.5 0,0.5 0,0 -0.25,0 -0.25,0 0,0 0,0.25 0,0.25 0,0 -0.25,0 -0.25,0 0,0 0,0.25 0,0.25 0,0 -0.25,0 -0.25,0 0,0 0,0.5 0,0.5 0,0 -0.25,0 -0.25,0 0,0 0,0.25 0,0.25 0,0 -0.25,0 -0.25,0 0,0 0,0.5 0,0.5 0,0 -0.25,0 -0.25,0 0,0 0,0.25 0,0.25 0,0 -0.25,0 -0.25,0 0,0 0,0.25 0,0.25 0,0 -0.25,0 -0.25,0 0,0 0,0.25 0,0.25 0,0 -0.25,0 -0.25,0 0,0 0,0.5 0,0.5 0,0 -0.25,0 -0.25,0 0,0 0,0.25 0,0.25 0,0 -0.25,0 -0.25,0 0,0 0,0.25 0,0.25 0,0 -0.25,0 -0.25,0 0,0 0,0.25 0,0.25 0,0 -0.25,0 -0.25,0 0,0 0,0.5 0,0.5 0,0 -0.25,0 -0.25,0 0,0 0,0.25 0,0.25 0,0 -0.25,0 -0.25,0 0,0 0,0.25 0,0.25 0,0 -0.25,0 -0.25,0 0,0 0,0.25 0,0.25 0,0 -0.25,0 -0.25,0 0,0 0,0.5 0,0.5 0,0 -0.25,0 -0.25,0 0,0 0,0.25 0,0.25 0,0 -0.25,0 -0.25,0 0,0 0,0.25 0,0.25 0,0 -0.25,0 -0.25,0 0,0 0,0.25 0,0.25 0,0 -0.25,0 -0.25,0 0,0 0,0.25 0,0.25 0,0 -0.25,0 -0.25,0 0,0 0,0.5 0,0.5 0,0 -0.25,0 -0.25,0 0,0 0,0.25 0,0.25 0,0 -0.25,0 -0.25,0 0,0 0,0.25 0,0.25 0,0 -0.25,0 -0.25,0 0,0 0,0.25 0,0.25 0,0 -0.25,0 -0.25,0 0,0 0,0.25 0,0.25 0,0 -0.25,0 -0.25,0 0,0 0,0.5 0,0.5 0,0 -0.25,0 -0.25,0 0,0 0,0.25 0,0.25 0,0 -0.25,0 -0.25,0 0,0 0,0.25 0,0.25 0,0 -0.25,0 -0.25,0 0,0 0,0.25 0,0.25 0,0 -0.25,0 -0.25,0 0,0 0,0.25 0,0.25 0,0 -0.25,0 -0.25,0 0,0 0,0.25 0,0.25 0,0 -0.25,0 -0.25,0 0,0 0,0.25 0,0.25 0,0 -0.25,0 -0.25,0 0,0 0,0.25 0,0.25 0,0 -0.25,0 -0.25,0 0,0 0,0.5 0,0.5 0,0 -0.25,0 -0.25,0 0,0 0,0.25 0,0.25 0,0 -0.25,0 -0.25,0 0,0 0,0.25 0,0.25 0,0 -0.25,0 -0.25,0 0,0 0,0.25 0,0.25 0,0 -0.25,0 -0.25,0 0,0 0,0.25 0,0.25 0,0 -0.25,0 -0.25,0 0,0 0,0.25 0,0.25 0,0 -0.25,0 -0.25,0 0,0 0,0.25 0,0.25 0,0 -0.25,0 -0.25,0 0,0 0,0.25 0,0.25 0,0 -0.25,0 -0.25,0 0,0 0,0.25 0,0.25 0,0 -0.25,0 -0.25,0 0,0 0,0.5 0,0.5 0,0 -0.25,0 -0.25,0 0,0 0,0.25 0,0.25 0,0 -0.25,0 -0.25,0 0,0 0,0.25 0,0.25 0,0 -0.25,0 -0.25,0 0,0 0,0.25 0,0.25 0,0 -0.25,0 -0.25,0 0,0 0,0.25 0,0.25 0,0 -0.25,0 -0.25,0 0,0 0,0.25 0,0.25 0,0 -0.25,0 -0.25,0 0,0 0,0.25 0,0.25 0,0 -0.25,0 -0.25,0 0,0 0,0.25 0,0.25 0,0 -0.25,0 -0.25,0 0,0 0,0.25 0,0.25 0,0 -0.25,0 -0.25,0 0,0 0,0.25 0,0.25 0,0 -0.25,0 -0.25,0 0,0 0,0.25 0,0.25 0,0 -0.25,0 -0.25,0 0,0 0,0.25 0,0.25 0,0 -0.25,0 -0.25,0 0,0 0,0.25 0,0.25 0,0 -0.25,0 -0.25,0 0,0 0,0.25 0,0.25 0,0 -0.25,0 -0.25,0 0,0 0,0.25 0,0.25 0,0 -0.25,0 -0.25,0 0,0 0,0.25 0,0.25 0,0 -0.25,0 -0.25,0 0,0 0,0.25 0,0.25 0,0 -0.25,0 -0.25,0 0,0 0,0.25 0,0.25 0,0 -0.25,0 -0.25,0 0,0 0,0.25 0,0.25 0,0 -0.25,0 -0.25,0 0,0 0,0.25 0,0.25 0,0 -0.25,0 -0.25,0 0,0 0,0.25 0,0.25 0,0 -0.25,0 -0.25,0 0,0 0,0.25 0,0.25 0,0 -0.25,0 -0.25,0 0,0 0,0.25 0,0.25 0,0 -0.25,0 -0.25,0 0,0 0,0.25 0,0.25 0,0 -0.25,0 -0.25,0 0,0 0,0.25 0,0.25 0,0 -0.25,0 -0.25,0 0,0 0,0.25 0,0.25 0,0 -0.25,0 -0.25,0 0,0 0,0.25 0,0.25 0,0 -0.25,0 -0.25,0 0,0 0,0.25 0,0.25 0,0 -0.25,0 -0.25,0 0,0 0,0.25 0,0.25 0,0 -0.25,0 -0.25,0 0,0 0,0.25 0,0.25 0,0 -0.25,0 -0.25,0 0,0 0,0.25 0,0.25 0,0 -0.25,0 -0.25,0 0,0 0,0.25 0,0.25 0,0 -0.25,0 -0.25,0 0,0 0,0.25 0,0.25 0,0 -0.25,0 -0.25,0 0,0 0,0.25 0,0.25 0,0 -0.25,0 -0.25,0 0,0 0,0.25 0,0.25 0,0 -0.25,0 -0.25,0 0,0 0,0.25 0,0.25 0,0 -0.25,0 -0.25,0 0,0 0,0.25 0,0.25 0,0 -0.25,0 -0.25,0 0,0 0,0.25 0,0.25 0,0 -0.25,0 -0.25,0 0,0 0,0.25 0,0.25 0,0 -0.25,0 -0.25,0 0,0 0,0.25 0,0.25 0,0 -0.25,0 -0.25,0 0,0 0,0.25 0,0.25 0,0 -0.25,0 -0.25,0 0,0 0,0.25 0,0.25 0,0 -0.25,0 -0.25,0 0,0 0,0.25 0,0.25 0,0 -0.5,0 -0.5,0 0,0 0,0.25 0,0.25 0,0 -0.25,0 -0.25,0 0,0 0,0.25 0,0.25 0,0 -0.25,0 -0.25,0 0,0 0,0.25 0,0.25 0,0 -0.25,0 -0.25,0 0,0 0,0.25 0,0.25 0,0 -0.25,0 -0.25,0 0,0 0,0.25 0,0.25 0,0 -0.25,0 -0.25,0 0,0 0,0.25 0,0.25 0,0 -0.25,0 -0.25,0 0,0 0,0.25 0,0.25 0,0 -0.25,0 -0.25,0 0,0 0,0.25 0,0.25 0,0 -0.25,0 -0.25,0 0,0 0,0.25 0,0.25 0,0 -0.25,0 -0.25,0 0,0 0,0.25 0,0.25 0,0 -0.5,0 -0.5,0 0,0 0,0.25 0,0.25 0,0 -0.25,0 -0.25,0 0,0 0,0.25 0,0.25 0,0 -0.25,0 -0.25,0 0,0 0,0.25 0,0.25 0,0 -0.25,0 -0.25,0 0,0 0,0.25 0,0.25 0,0 -0.25,0 -0.25,0 0,0 0,0.25 0,0.25 0,0 -0.25,0 -0.25,0 0,0 0,0.25 0,0.25 0,0 -0.25,0 -0.25,0 0,0 0,0.25 0,0.25 0,0 -0.25,0 -0.25,0 0,0 0,0.25 0,0.25 0,0 -0.5,0 -0.5,0 0,0 0,0.25 0,0.25 0,0 -0.25,0 -0.25,0 0,0 0,0.25 0,0.25 0,0 -0.25,0 -0.25,0 0,0 0,0.25 0,0.25 0,0 -0.25,0 -0.25,0 0,0 0,0.25 0,0.25 0,0 -0.25,0 -0.25,0 0,0 0,0.25 0,0.25 0,0 -0.25,0 -0.25,0 0,0 0,0.25 0,0.25 0,0 -0.25,0 -0.25,0 0,0 0,0.25 0,0.25 0,0 -0.5,0 -0.5,0 0,0 0,0.25 0,0.25 0,0 -0.25,0 -0.25,0 0,0 0,0.25 0,0.25 0,0 -0.25,0 -0.25,0 0,0 0,0.25 0,0.25 0,0 -0.25,0 -0.25,0 0,0 0,0.25 0,0.25 0,0 -0.25,0 -0.25,0 0,0 0,0.25 0,0.25 0,0 -0.5,0 -0.5,0 0,0 0,0.25 0,0.25 0,0 -0.25,0 -0.25,0 0,0 0,0.25 0,0.25 0,0 -0.25,0 -0.25,0 0,0 0,0.25 0,0.25 0,0 -0.25,0 -0.25,0 0,0 0,0.25 0,0.25 0,0 -0.25,0 -0.25,0 0,0 0,0.25 0,0.25 0,0 -0.5,0 -0.5,0 0,0 0,0.25 0,0.25 0,0 -0.25,0 -0.25,0 0,0 0,0.25 0,0.25 0,0 -0.25,0 -0.25,0 0,0 0,0.25 0,0.25 0,0 -0.25,0 -0.25,0 0,0 0,0.25 0,0.25 0,0 -0.25,0 -0.25,0 0,0 0,0.25 0,0.25 0,0 -0.5,0 -0.5,0 0,0 0,0.25 0,0.25 0,0 -0.25,0 -0.25,0 0,0 0,0.25 0,0.25 0,0 -0.25,0 -0.25,0 0,0 0,0.25 0,0.25 0,0 -0.25,0 -0.25,0 0,0 0,0.25 0,0.25 0,0 -0.5,0 -0.5,0 0,0 0,0.25 0,0.25 0,0 -0.25,0 -0.25,0 0,0 0,0.25 0,0.25 0,0 -0.25,0 -0.25,0 0,0 0,0.25 0,0.25 0,0 -0.25,0 -0.25,0 0,0 0,0.25 0,0.25 0,0 -0.5,0 -0.5,0 0,0 0,0.25 0,0.25 0,0 -0.25,0 -0.25,0 0,0 0,0.25 0,0.25 0,0 -0.25,0 -0.25,0 0,0 0,0.25 0,0.25 0,0 -0.25,0 -0.25,0 0,0 0,0.25 0,0.25 0,0 -0.5,0 -0.5,0 0,0 0,0.25 0,0.25 0,0 -0.25,0 -0.25,0 0,0 0,0.25 0,0.25 0,0 -0.25,0 -0.25,0 0,0 0,0.25 0,0.25 0,0 -0.25,0 -0.25,0 0,0 0,0.25 0,0.25 0,0 -0.5,0 -0.5,0 0,0 0,0.25 0,0.25 0,0 -0.25,0 -0.25,0 0,0 0,0.25 0,0.25 0,0 -0.25,0 -0.25,0 0,0 0,0.25 0,0.25 0,0 -0.5,0 -0.5,0 0,0 0,0.25 0,0.25 0,0 -0.25,0 -0.25,0 0,0 0,0.25 0,0.25 0,0 -0.25,0 -0.25,0 0,0 0,0.25 0,0.25 0,0 -0.5,0 -0.5,0 0,0 0,0.25 0,0.25 0,0 -0.25,0 -0.25,0 0,0 0,0.25 0,0.25 0,0 -0.25,0 -0.25,0 0,0 0,0.25 0,0.25 0,0 -0.5,0 -0.5,0 0,0 0,0.25 0,0.25 0,0 -0.25,0 -0.25,0 0,0 0,0.25 0,0.25 0,0 -0.25,0 -0.25,0 0,0 0,0.25 0,0.25 0,0 -0.5,0 -0.5,0 0,0 0,0.25 0,0.25 0,0 -0.25,0 -0.25,0 0,0 0,0.25 0,0.25 0,0 -0.25,0 -0.25,0 0,0 0,0.25 0,0.25 0,0 -0.5,0 -0.5,0 0,0 0,0.25 0,0.25 0,0 -0.25,0 -0.25,0 0,0 0,0.25 0,0.25 0,0 -0.25,0 -0.25,0 0,0 0,0.25 0,0.25 0,0 -0.5,0 -0.5,0 0,0 0,0.25 0,0.25 0,0 -0.25,0 -0.25,0 0,0 0,0.25 0,0.25 0,0 -0.5,0 -0.5,0 0,0 0,0.25 0,0.25 0,0 -0.25,0 -0.25,0 0,0 0,0.25 0,0.25 0,0 -0.25,0 -0.25,0 0,0 0,0.25 0,0.25 0,0 -0.5,0 -0.5,0 0,0 0,0.25 0,0.25 0,0 -0.25,0 -0.25,0 0,0 0,0.25 0,0.25 0,0 -0.5,0 -0.5,0 0,0 0,0.25 0,0.25 0,0 -0.25,0 -0.25,0 0,0 0,0.25 0,0.25 0,0 -0.5,0 -0.5,0 0,0 0,0.25 0,0.25 0,0 -0.25,0 -0.25,0 0,0 0,0.25 0,0.25 0,0 -0.25,0 -0.25,0 0,0 0,0.25 0,0.25 0,0 -0.5,0 -0.5,0 0,0 0,0.25 0,0.25 0,0 -0.25,0 -0.25,0 0,0 0,0.25 0,0.25 0,0 -0.5,0 -0.5,0 0,0 0,0.25 0,0.25 0,0 -0.25,0 -0.25,0 0,0 0,0.25 0,0.25 0,0 -0.5,0 -0.5,0 0,0 0,0.25 0,0.25 0,0 -0.25,0 -0.25,0 0,0 0,0.25 0,0.25 0,0 -0.5,0 -0.5,0 0,0 0,0.25 0,0.25 0,0 -0.25,0 -0.25,0 0,0 0,0.25 0,0.25 0,0 -0.5,0 -0.5,0 0,0 0,0.25 0,0.25 0,0 -0.25,0 -0.25,0 0,0 0,0.25 0,0.25 0,0 -0.5,0 -0.5,0 0,0 0,0.25 0,0.25 0,0 -0.25,0 -0.25,0 0,0 0,0.25 0,0.25 0,0 -0.5,0 -0.5,0 0,0 0,0.25 0,0.25 0,0 -0.25,0 -0.25,0 0,0 0,0.25 0,0.25 0,0 -0.5,0 -0.5,0 0,0 0,0.25 0,0.25 0,0 -0.5,0 -0.5,0 0,0 0,0.25 0,0.25 0,0 -0.25,0 -0.25,0 0,0 0,0.25 0,0.25 0,0 -0.5,0 -0.5,0 0,0 0,0.25 0,0.25 0,0 -0.25,0 -0.25,0 0,0 0,0.25 0,0.25 0,0 -0.5,0 -0.5,0 0,0 0,0.25 0,0.25 0,0 -0.5,0 -0.5,0 0,0 0,0.25 0,0.25 0,0 -0.25,0 -0.25,0 0,0 0,0.25 0,0.25 0,0 -0.5,0 -0.5,0 0,0 0,0.25 0,0.25 0,0 -0.25,0 -0.25,0 0,0 0,0.25 0,0.25 0,0 -0.5,0 -0.5,0 0,0 0,0.25 0,0.25 0,0 -0.5,0 -0.5,0 0,0 0,0.25 0,0.25 0,0 -0.5,0 -0.5,0 0,0 0,0.25 0,0.25 0,0 -0.25,0 -0.25,0 0,0 0,0.25 0,0.25 0,0 -0.5,0 -0.5,0 0,0 0,0.25 0,0.25 0,0 -0.5,0 -0.5,0 0,0 0,0.25 0,0.25 0,0 -0.25,0 -0.25,0 0,0 0,0.25 0,0.25 0,0 -0.5,0 -0.5,0 0,0 0,0.25 0,0.25 0,0 -0.5,0 -0.5,0 0,0 0,0.25 0,0.25 0,0 -0.5,0 -0.5,0 0,0 0,0.25 0,0.25 0,0 -0.25,0 -0.25,0 0,0 0,0.25 0,0.25 0,0 -0.5,0 -0.5,0 0,0 0,0.25 0,0.25 0,0 -0.5,0 -0.5,0 0,0 0,0.25 0,0.25 0,0 -0.5,0 -0.5,0 0,0 0,0.25 0,0.25 0,0 -0.5,0 -0.5,0 0,0 0,0.25 0,0.25 0,0 -0.5,0 -0.5,0 0,0 0,0.25 0,0.25 0,0 -0.25,0 -0.25,0 0,0 0,0.25 0,0.25 0,0 -0.5,0 -0.5,0 0,0 0,0.25 0,0.25 0,0 -0.5,0 -0.5,0 0,0 0,0.25 0,0.25 0,0 -0.5,0 -0.5,0 0,0 0,0.25 0,0.25 0,0 -0.5,0 -0.5,0 0,0 0,0.25 0,0.25 0,0 -0.5,0 -0.5,0 0,0 0,0.25 0,0.25 0,0 -0.5,0 -0.5,0 0,0 0,0.25 0,0.25 0,0 -0.5,0 -0.5,0 0,0 0,0.25 0,0.25 0,0 -0.5,0 -0.5,0 0,0 0,0.25 0,0.25 0,0 -0.75,0 -0.75,0 0,0 0,0.25 0,0.25 0,0 -0.5,0 -0.5,0 0,0 0,0.25 0,0.25 0,0 -0.5,0 -0.5,0 0,0 0,0.25 0,0.25 0,0 -0.5,0 -0.5,0 0,0 0,0.25 0,0.25 0,0 -0.5,0 -0.5,0 0,0 0,0.25 0,0.25 0,0 -0.75,0 -0.75,0 0,0 0,0.25 0,0.25 0,0 -0.5,0 -0.5,0 0,0 0,0.25 0,0.25 0,0 -0.75,0 -0.75,0 0,0 0,0.25 0,0.25 0,0 -0.5,0 -0.5,0 0,0 0,0.25 0,0.25 0,0 -0.75,0 -0.75,0 0,0 0,0.25 0,0.25 0,0 -0.75,0 -0.75,0 0,0 0,0.25 0,0.25 0,0 -0.5,0 -0.5,0 0,0 0,0.25 0,0.25 0,0 -1,0 -1,0 0,0 0,0.25 0,0.25 0,0 -0.75,0 -0.75,0 0,0 0,0.25 0,0.25 0,0 -0.75,0 -0.75,0 0,0 0,0.25 0,0.25 0,0 -1,0 -1,0 0,0 0,0.25 0,0.25 0,0 -1.25,0 -1.25,0 0,0 0,0.25 0,0.25 0,0 -1.75,0 -1.75,0 0,0 0,0.25 0,0.25 0,0 -2.5,0 -2.5,0 0,0 0,-0.25 0,-0.25 0,0 -1,0 -1,0 0,0 0,-0.25 0,-0.25 0,0 -0.75,0 -0.75,0 0,0 0,-0.25 0,-0.25 0,0 -0.5,0 -0.5,0 0,0 0,-0.25 0,-0.25 0,0 -0.5,0 -0.5,0 0,0 0,-0.25 0,-0.25 0,0 -0.25,0 -0.25,0 0,0 0,-0.25 0,-0.25 0,0 -0.25,0 -0.25,0 0,0 0,-0.25 0,-0.25 0,0 -0.25,0 -0.25,0 0,0 0,-0.25 0,-0.25 0,0 -0.25,0 -0.25,0 0,0 0,-0.5 0,-0.5 0,0 -0.25,0 -0.25,0 0,0 0,-0.5 0,-0.5 0,0 -0.25,0 -0.25,0 0,0 0,-0.5 0,-0.5 0,0 -0.25,0 -0.25,0 0,0 0,-0.75 0,-0.75 0,0 -0.25,0 -0.25,0 0,0 0,-2.5 0,-2.5 0,0 0.25,0 0.25,0 0,0 0,-1.25 0,-1.25 0,0 0.25,0 0.25,0 0,0 0,-0.75 0,-0.75 0,0 0.25,0 0.25,0 0,0 0,-0.75 0,-0.75 0,0 0.25,0 0.25,0 0,0 0,-0.5 0,-0.5 0,0 0.25,0 0.25,0 0,0 0,-0.5 0,-0.5 0,0 0.25,0 0.25,0 0,0 0,-0.5 0,-0.5 0,0 0.25,0 0.25,0 0,0 0,-0.5 0,-0.5 0,0 0.25,0 0.25,0 0,0 0,-0.5 0,-0.5 0,0 0.25,0 0.25,0 0,0 0,-0.5 0,-0.5 0,0 0.25,0 0.25,0 0,0 0,-0.25 0,-0.25 0,0 0.25,0 0.25,0 0,0 0,-0.5 0,-0.5 0,0 0.25,0 0.25,0 0,0 0,-0.5 0,-0.5 0,0 0.25,0 0.25,0 0,0 0,-0.25 0,-0.25 0,0 0.25,0 0.25,0 0,0 0,-0.5 0,-0.5 0,0 0.25,0 0.25,0 0,0 0,-0.25 0,-0.25 0,0 0.25,0 0.25,0 0,0 0,-0.5 0,-0.5 0,0 0.25,0 0.25,0 0,0 0,-0.25 0,-0.25 0,0 0.25,0 0.25,0 0,0 0,-0.5 0,-0.5 0,0 0.25,0 0.25,0 0,0 0,-0.25 0,-0.25 0,0 0.25,0 0.25,0 0,0 0,-0.25 0,-0.25 0,0 0.25,0 0.25,0 0,0 0,-0.5 0,-0.5 0,0 0.25,0 0.25,0 0,0 0,-0.25 0,-0.25 0,0 0.25,0 0.25,0 0,0 0,-0.25 0,-0.25 0,0 0.25,0 0.25,0 0,0 0,-0.5 0,-0.5 0,0 0.25,0 0.25,0 0,0 0,-0.25 0,-0.25 0,0 0.25,0 0.25,0 0,0 0,-0.25 0,-0.25 0,0 0.25,0 0.25,0 0,0 0,-0.5 0,-0.5 0,0 0.25,0 0.25,0 0,0 0,-0.25 0,-0.25 0,0 0.25,0 0.25,0 0,0 0,-0.25 0,-0.25 0,0 0.25,0 0.25,0 0,0 0,-0.25 0,-0.25 0,0 0.25,0 0.25,0 0,0 0,-0.25 0,-0.25 0,0 0.25,0 0.25,0 0,0 0,-0.5 0,-0.5 0,0 0.25,0 0.25,0 0,0 0,-0.25 0,-0.25 0,0 0.25,0 0.25,0 0,0 0,-0.25 0,-0.25 0,0 0.25,0 0.25,0 0,0 0,-0.25 0,-0.25 0,0 0.25,0 0.25,0 0,0 0,-0.25 0,-0.25 0,0 0.25,0 0.25,0 0,0 0,-0.25 0,-0.25 0,0 0.25,0 0.25,0 0,0 0,-0.5 0,-0.5 0,0 0.25,0 0.25,0 0,0 0,-0.25 0,-0.25 0,0 0.25,0 0.25,0 0,0 0,-0.25 0,-0.25 0,0 0.25,0 0.25,0 0,0 0,-0.25 0,-0.25 0,0 0.25,0 0.25,0 0,0 0,-0.25 0,-0.25 0,0 0.25,0 0.25,0 0,0 0,-0.25 0,-0.25 0,0 0.25,0 0.25,0 0,0 0,-0.25 0,-0.25 0,0 0.25,0 0.25,0 0,0 0,-0.25 0,-0.25 0,0 0.25,0 0.25,0 0,0 0,-0.25 0,-0.25 0,0 0.25,0 0.25,0 0,0 0,-0.25 0,-0.25 0,0 0.25,0 0.25,0 0,0 0,-0.5 0,-0.5 0,0 0.25,0 0.25,0 0,0 0,-0.25 0,-0.25 0,0 0.25,0 0.25,0 0,0 0,-0.25 0,-0.25 0,0 0.25,0 0.25,0 0,0 0,-0.25 0,-0.25 0,0 0.25,0 0.25,0 0,0 0,-0.25 0,-0.25 0,0 0.25,0 0.25,0 0,0 0,-0.25 0,-0.25 0,0 0.25,0 0.25,0 0,0 0,-0.25 0,-0.25 0,0 0.25,0 0.25,0 0,0 0,-0.25 0,-0.25 0,0 0.25,0 0.25,0 0,0 0,-0.25 0,-0.25 0,0 0.25,0 0.25,0 0,0 0,-0.25 0,-0.25 0,0 0.25,0 0.25,0 0,0 0,-0.25 0,-0.25 0,0 0.25,0 0.25,0 0,0 0,-0.25 0,-0.25 0,0 0.25,0 0.25,0 0,0 0,-0.25 0,-0.25 0,0 0.25,0 0.25,0 0,0 0,-0.25 0,-0.25 0,0 0.25,0 0.25,0 0,0 0,-0.25 0,-0.25 0,0 0.25,0 0.25,0 0,0 0,-0.25 0,-0.25 0,0 0.25,0 0.25,0 0,0 0,-0.25 0,-0.25 0,0 0.25,0 0.25,0 0,0 0,-0.25 0,-0.25 0,0 0.25,0 0.25,0 0,0 0,-0.25 0,-0.25 0,0 0.25,0 0.25,0 0,0 0,-0.25 0,-0.25 0,0 0.25,0 0.25,0 0,0 0,-0.25 0,-0.25 0,0 0.25,0 0.25,0 0,0 0,-0.25 0,-0.25 0,0 0.25,0 0.25,0 0,0 0,-0.25 0,-0.25 0,0 0.25,0 0.25,0 0,0 0,-0.25 0,-0.25 0,0 0.25,0 0.25,0 0,0 0,-0.25 0,-0.25 0,0 0.25,0 0.25,0 0,0 0,-0.25 0,-0.25 0,0 0.25,0 0.25,0 0,0 0,-0.25 0,-0.25 0,0 0.25,0 0.25,0 0,0 0,-0.25 0,-0.25 0,0 0.25,0 0.25,0 0,0 0,-0.25 0,-0.25 0,0 0.25,0 0.25,0 0,0 0,-0.25 0,-0.25 0,0 0.25,0 0.25,0 0,0 0,-0.25 0,-0.25 0,0 0.25,0 0.25,0 0,0 0,-0.25 0,-0.25 0,0 0.25,0 0.25,0 0,0 0,-0.25 0,-0.25 0,0 0.25,0 0.25,0 0,0 0,-0.25 0,-0.25 0,0 0.25,0 0.25,0 0,0 0,-0.25 0,-0.25 0,0 0.25,0 0.25,0 0,0 0,-0.25 0,-0.25 0,0 0.25,0 0.25,0 0,0 0,-0.25 0,-0.25 0,0 0.25,0 0.25,0 0,0 0,-0.25 0,-0.25 0,0 0.25,0 0.25,0 0,0 0,-0.25 0,-0.25 0,0 0.25,0 0.25,0 0,0 0,-0.25 0,-0.25 0,0 0.25,0 0.25,0 0,0 0,-0.25 0,-0.25 0,0 0.25,0 0.25,0 0,0 0,-0.25 0,-0.25 0,0 0.25,0 0.25,0 0,0 0,-0.25 0,-0.25 0,0 0.25,0 0.25,0 0,0 0,-0.25 0,-0.25 0,0 0.25,0 0.25,0 0,0 0,-0.25 0,-0.25 0,0 0.25,0 0.25,0 0,0 0,-0.25 0,-0.25 0,0 0.25,0 0.25,0 0,0 0,-0.25 0,-0.25 0,0 0.25,0 0.25,0 0,0 0,-0.25 0,-0.25 0,0 0.25,0 0.25,0 0,0 0,-0.25 0,-0.25 0,0 0.25,0 0.25,0 0,0 0,-0.25 0,-0.25 0,0 0.25,0 0.25,0 0,0 0,-0.25 0,-0.25 0,0 0.25,0 0.25,0 0,0 0,-0.25 0,-0.25 0,0 0.25,0 0.25,0 0,0 0,-0.25 0,-0.25 0,0 0.25,0 0.25,0 0,0 0,-0.25 0,-0.25 0,0 0.5,0 0.5,0 0,0 0,-0.25 0,-0.25 0,0 0.25,0 0.25,0 0,0 0,-0.5 0,-0.5 0,0 0.25,0 0.25,0 0,0 0,-0.25 0,-0.25 0,0 0.25,0 0.25,0 0,0 0,-0.25 0,-0.25 0,0 0.25,0 0.25,0 0,0 0,-0.25 0,-0.25 0,0 0.25,0 0.25,0 0,0 0,-0.25 0,-0.25 0,0 0.25,0 0.25,0 0,0 0,-0.25 0,-0.25 0,0 0.25,0 0.25,0 0,0 0,-0.25 0,-0.25 0,0 0.25,0 0.25,0 0,0 0,-0.25 0,-0.25 0,0 0.25,0 0.25,0 0,0 0,-0.25 0,-0.25 0,0 0.25,0 0.25,0 0,0 0,-0.25 0,-0.25 0,0 0.25,0 0.25,0 0,0 0,-0.25 0,-0.25 0,0 0.25,0 0.25,0 0,0 0,-0.5 0,-0.5 0,0 0.25,0 0.25,0 0,0 0,-0.25 0,-0.25 0,0 0.25,0 0.25,0 0,0 0,-0.25 0,-0.25 0,0 0.25,0 0.25,0 0,0 0,-0.25 0,-0.25 0,0 0.25,0 0.25,0 0,0 0,-0.25 0,-0.25 0,0 0.25,0 0.25,0 0,0 0,-0.25 0,-0.25 0,0 0.25,0 0.25,0 0,0 0,-0.5 0,-0.5 0,0 0.25,0 0.25,0 0,0 0,-0.25 0,-0.25 0,0 0.25,0 0.25,0 0,0 0,-0.25 0,-0.25 0,0 0.25,0 0.25,0 0,0 0,-0.5 0,-0.5 0,0 0.25,0 0.25,0 0,0 0,-0.25 0,-0.25 0,0 0.25,0 0.25,0 0,0 0,-0.25 0,-0.25 0,0 0.25,0 0.25,0 0,0 0,-0.25 0,-0.25 0,0 0.25,0 0.25,0 0,0 0,-0.5 0,-0.5 0,0 0.25,0 0.25,0 0,0 0,-0.25 0,-0.25 0,0 0.25,0 0.25,0 0,0 0,-0.5 0,-0.5 0,0 0.25,0 0.25,0 0,0 0,-0.25 0,-0.25 0,0 0.25,0 0.25,0 0,0 0,-0.5 0,-0.5 0,0 0.25,0 0.25,0 0,0 0,-0.5 0,-0.5 0,0 0.25,0 0.25,0 0,0 0,-0.25 0,-0.25 0,0 0.25,0 0.25,0 0,0 0,-0.5 0,-0.5 0,0 0.25,0 0.25,0 0,0 0,-0.5 0,-0.5 0,0 0.25,0 0.25,0 0,0 0,-0.25 0,-0.25 0,0 0.25,0 0.25,0 0,0 0,-0.75 0,-0.75 0,0 0.25,0 0.25,0 0,0 0,-0.75 0,-0.75 0,0 0.25,0 0.25,0 0,0 0,-0.75 0,-0.75 0,0 0.25,0 0.25,0 0,0 0,-0.5 0,-0.5 0,0 0.25,0 0.25,0 0,0 0,-3.75 0,-3.75 0,0 -0.25,0 -0.25,0 0,0 0,-1 0,-1 0,0 -0.25,0 -0.25,0 0,0 0,-0.75 0,-0.75 0,0 -0.25,0 -0.25,0 0,0 0,-0.25 0,-0.25 0,0 -0.25,0 -0.25,0 0,0 0,-0.5 0,-0.5 0,0 -0.25,0 -0.25,0 0,0 0,-0.25 0,-0.25 0,0 -0.25,0 -0.25,0 0,0 0,-0.5 0,-0.5 0,0 -0.25,0 -0.25,0 0,0 0,-0.25 0,-0.25 0,0 -0.25,0 -0.25,0 0,0 0,-0.25 0,-0.25 0,0 -0.25,0 -0.25,0 0,0 0,-0.25 0,-0.25 0,0 -0.25,0 -0.25,0 0,0 0,-0.25 0,-0.25 0,0 -0.25,0 -0.25,0 0,0 0,-0.25 0,-0.25 0,0 -0.25,0 -0.25,0 0,0 0,-0.25 0,-0.25 0,0 -0.25,0 -0.25,0 0,0 0,-0.25 0,-0.25 0,0 -0.25,0 -0.25,0 0,0 0,-0.25 0,-0.25 0,0 -0.5,0 -0.5,0 0,0 0,-0.25 0,-0.25 0,0 -0.25,0 -0.25,0 0,0 0,-0.25 0,-0.25 0,0 -0.5,0 -0.5,0 0,0 0,-0.25 0,-0.25 0,0 -0.25,0 -0.25,0 0,0 0,-0.25 0,-0.25 0,0 -0.5,0 -0.5,0 0,0 0,-0.25 0,-0.25 0,0 -0.5,0 -0.5,0 0,0 0,-0.25 0,-0.25 0,0 -0.5,0 -0.5,0 0,0 0,-0.25 0,-0.25 0,0 -0.5,0 -0.5,0 0,0 0,-0.25 0,-0.25 0,0 -0.75,0 -0.75,0 0,0 0,-0.25 0,-0.25 0,0 -0.75,0 -0.75,0 0,0 0,-0.25 0,-0.25 0,0 -0.5,0 -0.5,0 0,0 0,-0.25 0,-0.25 0,0 -0.75,0 -0.75,0 0,0 0,-0.25 0,-0.25 0,0 -1.25,0 -1.25,0 0,0 0,-0.25 0,-0.25 0,0 -1,0 -1,0 0,0 0,-0.25 0,-0.25 0,0 -1.5,0 -1.5,0 0,0 0,-0.25 0,-0.25 0,0 -2.25,0 -2.25,0 0,0 0,-0.25 0,-0.25 0,0 -0.25,0 -0.25,0 0,0 0,0.25 0,0.25 0,0 -4.5,0 -4.5,0 0,0 0,0.25 0,0.25 0,0 -1.5,0 -1.5,0 0,0 0,0.25 0,0.25 0,0 -1.25,0 -1.25,0 0,0 0,0.25 0,0.25 0,0 -0.75,0 -0.75,0 0,0 0,0.25 0,0.25 0,0 -0.75,0 -0.75,0 0,0 0,0.25 0,0.25 0,0 -1,0 -1,0 0,0 0,0.25 0,0.25 0,0 -0.75,0 -0.75,0 0,0 0,0.25 0,0.25 0,0 -0.5,0 -0.5,0 0,0 0,0.25 0,0.25 0,0 -0.5,0 -0.5,0 0,0 0,0.25 0,0.25 0,0 -0.5,0 -0.5,0 0,0 0,0.25 0,0.25 0,0 -0.75,0 -0.75,0 0,0 0,0.25 0,0.25 0,0 -0.5,0 -0.5,0 0,0 0,0.25 0,0.25 0,0 -0.5,0 -0.5,0 0,0 0,0.25 0,0.25 0,0 -0.5,0 -0.5,0 0,0 0,0.25 0,0.25 0,0 -0.5,0 -0.5,0 0,0 0,0.25 0,0.25 0,0 -0.25,0 -0.25,0 0,0 0,0.25 0,0.25 0,0 -0.5,0 -0.5,0 0,0 0,0.25 0,0.25 0,0 -0.25,0 -0.25,0 0,0 0,0.25 0,0.25 0,0 -0.5,0 -0.5,0 0,0 0,0.25 0,0.25 0,0 -0.25,0 -0.25,0 0,0 0,0.25 0,0.25 0,0 -0.5,0 -0.5,0 0,0 0,0.25 0,0.25 0,0 -0.25,0 -0.25,0 0,0 0,0.25 0,0.25 0,0 -0.25,0 -0.25,0 0,0 0,0.25 0,0.25 0,0 -0.5,0 -0.5,0 0,0 0,0.25 0,0.25 0,0 -0.25,0 -0.25,0 0,0 0,0.25 0,0.25 0,0 -0.5,0 -0.5,0 0,0 0,0.25 0,0.25 0,0 -0.25,0 -0.25,0 0,0 0,0.25 0,0.25 0,0 -0.25,0 -0.25,0 0,0 0,0.25 0,0.25 0,0 -0.25,0 -0.25,0 0,0 0,0.25 0,0.25 0,0 -0.25,0 -0.25,0 0,0 0,0.25 0,0.25 0,0 -0.25,0 -0.25,0 0,0 0,0.25 0,0.25 0,0 -0.5,0 -0.5,0 0,0 0,0.25 0,0.25 0,0 -0.25,0 -0.25,0 0,0 0,0.25 0,0.25 0,0 -0.25,0 -0.25,0 0,0 0,0.25 0,0.25 0,0 -0.25,0 -0.25,0 0,0 0,0.25 0,0.25 0,0 -0.25,0 -0.25,0 0,0 0,0.25 0,0.25 0,0 -0.25,0 -0.25,0 0,0 0,0.25 0,0.25 0,0 -0.25,0 -0.25,0 0,0 0,0.25 0,0.25 0,0 -0.25,0 -0.25,0 0,0 0,0.25 0,0.25 0,0 -0.25,0 -0.25,0 0,0 0,0.25 0,0.25 0,0 -0.25,0 -0.25,0 0,0 0,0.25 0,0.25 0,0 -0.25,0 -0.25,0 0,0 0,0.25 0,0.25 0,0 -0.25,0 -0.25,0 0,0 0,0.25 0,0.25 0,0 -0.25,0 -0.25,0 0,0 0,0.25 0,0.25 0,0 -0.25,0 -0.25,0 0,0 0,0.25 0,0.25 0,0 -0.25,0 -0.25,0 0,0 0,0.25 0,0.25 0,0 -0.25,0 -0.25,0 0,0 0,0.5 0,0.5 0,0 -0.25,0 -0.25,0 0,0 0,0.25 0,0.25 0,0 -0.25,0 -0.25,0 0,0 0,0.25 0,0.25 0,0 -0.25,0 -0.25,0 0,0 0,0.25 0,0.25 0,0 -0.25,0 -0.25,0 0,0 0,0.25 0,0.25 0,0 -0.25,0 -0.25,0 0,0 0,0.5 0,0.5 0,0 -0.25,0 -0.25,0 0,0 0,0.25 0,0.25 0,0 -0.25,0 -0.25,0 0,0 0,0.25 0,0.25 0,0 -0.25,0 -0.25,0 0,0 0,0.25 0,0.25 0,0 -0.25,0 -0.25,0 0,0 0,0.25 0,0.25 0,0 -0.25,0 -0.25,0 0,0 0,0.25 0,0.25 0,0 -0.25,0 -0.25,0 0,0 0,0.5 0,0.5 0,0 -0.25,0 -0.25,0 0,0 0,0.25 0,0.25 0,0 -0.25,0 -0.25,0 0,0 0,0.5 0,0.5 0,0 -0.25,0 -0.25,0 0,0 0,0.25 0,0.25 0,0 -0.25,0 -0.25,0 0,0 0,0.5 0,0.5 0,0 -0.25,0 -0.25,0 0,0 0,0.25 0,0.25 0,0 -0.25,0 -0.25,0 0,0 0,0.5 0,0.5 0,0 -0.25,0 -0.25,0 0,0 0,0.25 0,0.25 0,0 -0.25,0 -0.25,0 0,0 0,0.5 0,0.5 0,0 -0.25,0 -0.25,0 0,0 0,0.25 0,0.25 0,0 -0.25,0 -0.25,0 0,0 0,0.5 0,0.5 0,0 -0.25,0 -0.25,0 0,0 0,0.25 0,0.25 0,0 -0.25,0 -0.25,0 0,0 0,0.5 0,0.5 0,0 -0.25,0 -0.25,0 0,0 0,0.25 0,0.25 0,0 -0.25,0 -0.25,0 0,0 0,0.5 0,0.5 0,0 -0.25,0 -0.25,0 0,0 0,0.25 0,0.25 0,0 -0.25,0 -0.25,0 0,0 0,0.5 0,0.5 0,0 -0.25,0 -0.25,0 0,0 0,0.5 0,0.5 0,0 -0.25,0 -0.25,0 0,0 0,0.5 0,0.5 0,0 -0.25,0 -0.25,0 0,0 0,0.5 0,0.5 0,0 -0.25,0 -0.25,0 0,0 0,0.5 0,0.5 0,0 -0.25,0 -0.25,0 0,0 0,0.5 0,0.5 0,0 -0.25,0 -0.25,0 0,0 0,0.5 0,0.5 0,0 -0.25,0 -0.25,0 0,0 0,0.25 0,0.25 0,0 -0.25,0 -0.25,0 0,0 0,0.5 0,0.5 0,0 -0.25,0 -0.25,0 0,0 0,0.5 0,0.5 0,0 -0.25,0 -0.25,0 0,0 0,0.5 0,0.5 0,0 -0.25,0 -0.25,0 0,0 0,0.5 0,0.5 0,0 -0.25,0 -0.25,0 0,0 0,0.5 0,0.5 0,0 -0.25,0 -0.25,0 0,0 0,0.5 0,0.5 0,0 -0.25,0 -0.25,0 0,0 0,0.5 0,0.5 0,0 -0.25,0 -0.25,0 0,0 0,0.5 0,0.5 0,0 -0.25,0 -0.25,0 0,0 0,0.5 0,0.5 0,0 -0.25,0 -0.25,0 0,0 0,0.75 0,0.75 0,0 -0.25,0 -0.25,0 0,0 0,0.5 0,0.5 0,0 -0.25,0 -0.25,0 0,0 0,0.5 0,0.5 0,0 -0.25,0 -0.25,0 0,0 0,0.75 0,0.75 0,0 -0.25,0 -0.25,0 0,0 0,0.5 0,0.5 0,0 -0.25,0 -0.25,0 0,0 0,0.5 0,0.5 0,0 -0.25,0 -0.25,0 0,0 0,0.75 0,0.75 0,0 -0.25,0 -0.25,0 0,0 0,0.5 0,0.5 0,0 -0.25,0 -0.25,0 0,0 0,0.5 0,0.5 0,0 -0.25,0 -0.25,0 0,0 0,0.75 0,0.75 0,0 -0.25,0 -0.25,0 0,0 0,0.5 0,0.5 0,0 -0.25,0 -0.25,0 0,0 0,0.75 0,0.75 0,0 -0.25,0 -0.25,0 0,0 0,0.75 0,0.75 0,0 -0.25,0 -0.25,0 0,0 0,0.75 0,0.75 0,0 -0.25,0 -0.25,0 0,0 0,0.75 0,0.75 0,0 -0.25,0 -0.25,0 0,0 0,1 0,1 0,0 -0.25,0 -0.25,0 0,0 0,0.75 0,0.75 0,0 -0.25,0 -0.25,0 0,0 0,0.75 0,0.75 0,0 -0.25,0 -0.25,0 0,0 0,1 0,1 0,0 -0.25,0 -0.25,0 0,0 0,1.75 0,1.75 0,0 -0.25,0 -0.25,0 0,0 0,1.75 0,1.75 0,0 -0.25,0 -0.25,0 0,0 0,2 0,2 0,0 -0.25,0 -0.25,0 0,0 0,0.25 0,0.25 0,0 0.25,0 0.25,0 0,0 0,5 0,5 0,0 0.25,0 0.25,0 0,0 0,1 0,1 0,0 0.25,0 0.25,0 0,0 0,1 0,1 0,0 0.25,0 0.25,0 0,0 0,1.25 0,1.25 0,0 0.25,0 0.25,0 0,0 0,1 0,1 0,0 0.25,0 0.25,0 0,0 0,0.5 0,0.5 0,0 0.25,0 0.25,0 0,0 0,0.5 0,0.5 0,0 0.25,0 0.25,0 0,0 0,0.75 0,0.75 0,0 0.25,0 0.25,0 0,0 0,0.5 0,0.5 0,0 0.25,0 0.25,0 0,0 0,0.5 0,0.5 0,0 0.25,0 0.25,0 0,0 0,0.5 0,0.5 0,0 0.25,0 0.25,0 0,0 0,0.5 0,0.5 0,0 0.25,0 0.25,0 0,0 0,0.5 0,0.5 0,0 0.25,0 0.25,0 0,0 0,0.25 0,0.25 0,0 0.25,0 0.25,0 0,0 0,0.5 0,0.5 0,0 0.25,0 0.25,0 0,0 0,0.25 0,0.25 0,0 0.25,0 0.25,0 0,0 0,0.5 0,0.5 0,0 0.25,0 0.25,0 0,0 0,0.25 0,0.25 0,0 0.25,0 0.25,0 0,0 0,0.25 0,0.25 0,0 0.25,0 0.25,0 0,0 0,0.5 0,0.5 0,0 0.25,0 0.25,0 0,0 0,0.25 0,0.25 0,0 0.25,0 0.25,0 0,0 0,0.25 0,0.25 0,0 0.25,0 0.25,0 0,0 0,0.5 0,0.5 0,0 0.5,0 0.5,0 0,0 0,0.25 0,0.25 0,0 0.25,0 0.25,0 0,0 0,0.25 0,0.25 0,0 0.25,0 0.25,0 0,0 0,0.25 0,0.25 0,0 0.25,0 0.25,0 0,0 0,0.25 0,0.25 0,0 0.25,0 0.25,0 0,0 0,0.25 0,0.25 0,0 0.25,0 0.25,0 0,0 0,0.25 0,0.25 0,0 0.25,0 0.25,0 0,0 0,0.25 0,0.25 0,0 0.25,0 0.25,0 0,0 0,0.25 0,0.25 0,0 0.25,0 0.25,0 0,0 0,0.25 0,0.25 0,0 0.25,0 0.25,0 0,0 0,0.25 0,0.25 0,0 0.25,0 0.25,0 0,0 0,0.25 0,0.25 0,0 0.5,0 0.5,0 0,0 0,0.25 0,0.25 0,0 0.25,0 0.25,0 0,0 0,0.25 0,0.25 0,0 0.5,0 0.5,0 0,0 0,0.25 0,0.25 0,0 0.25,0 0.25,0 0,0 0,0.25 0,0.25 0,0 0.5,0 0.5,0 0,0 0,0.25 0,0.25 0,0 0.25,0 0.25,0 0,0 0,0.25 0,0.25 0,0 0.5,0 0.5,0 0,0 0,0.25 0,0.25 0,0 0.25,0 0.25,0 0,0 0,0.25 0,0.25 0,0 0.5,0 0.5,0 0,0 0,0.25 0,0.25 0,0 0.5,0 0.5,0 0,0 0,0.25 0,0.25 0,0 0.5,0 0.5,0 0,0 0,0.25 0,0.25 0,0 0.5,0 0.5,0 0,0 0,0.25 0,0.25 0,0 0.75,0 0.75,0 0,0 0,0.25 0,0.25 0,0 0.75,0 0.75,0 0,0 0,0.25 0,0.25 0,0 0.75,0 0.75,0 0,0 0,0.25 0,0.25 0,0 1.25,0 1.25,0 0,0 0,0.25 0,0.25 0,0 1.5,0 1.5,0 0,0 0,0.25 0,0.25 0,0 2.5,0 2.5,0 0,0 0,0.25 0,0.25 0,0 4,0 4,0 0,0 0,-0.25 0,-0.25 0,0 3,0 3,0 0,0 0,-0.25 0,-0.25 0,0 1.75,0 1.75,0 0,0 0,-0.25 0,-0.25 0,0 1.5,0 1.5,0 0,0 0,-0.25 0,-0.25 0,0 1.25,0 1.25,0 0,0 0,-0.25 0,-0.25 0,0 1.25,0 1.25,0 0,0 0,-0.25 0,-0.25 0,0 1,0 1,0 0,0 0,-0.25 0,-0.25 0,0 1,0 1,0 0,0 0,-0.25 0,-0.25 0,0 1,0 1,0 0,0 0,-0.25 0,-0.25 0,0 0.75,0 0.75,0 0,0 0,-0.25 0,-0.25 0,0 0.75,0 0.75,0 0,0 0,-0.25 0,-0.25 0,0 1,0 1,0 0,0 0,-0.25 0,-0.25 0,0 0.75,0 0.75,0 0,0 0,-0.25 0,-0.25 0,0 0.75,0 0.75,0 0,0 0,-0.25 0,-0.25 0,0 0.75,0 0.75,0 0,0 0,-0.25 0,-0.25 0,0 0.75,0 0.75,0 0,0 0,-0.25 0,-0.25 0,0 0.5,0 0.5,0 0,0 0,-0.25 0,-0.25 0,0 0.75,0 0.75,0 0,0 0,-0.25 0,-0.25 0,0 0.75,0 0.75,0 0,0 0,-0.25 0,-0.25 0,0 0.5,0 0.5,0 0,0 0,-0.25 0,-0.25 0,0 0.75,0 0.75,0 0,0 0,-0.25 0,-0.25 0,0 0.5,0 0.5,0 0,0 0,-0.25 0,-0.25 0,0 0.75,0 0.75,0 0,0 0,-0.25 0,-0.25 0,0 0.5,0 0.5,0 0,0 0,-0.25 0,-0.25 0,0 0.75,0 0.75,0 0,0 0,-0.25 0,-0.25 0,0 0.5,0 0.5,0 0,0 0,-0.25 0,-0.25 0,0 0.5,0 0.5,0 0,0 0,-0.25 0,-0.25 0,0 0.5,0 0.5,0 0,0 0,-0.25 0,-0.25 0,0 0.75,0 0.75,0 0,0 0,-0.25 0,-0.25 0,0 0.5,0 0.5,0 0,0 0,-0.25 0,-0.25 0,0 0.5,0 0.5,0 0,0 0,-0.25 0,-0.25 0,0 0.5,0 0.5,0 0,0 0,-0.25 0,-0.25 0,0 0.5,0 0.5,0 0,0 0,-0.25 0,-0.25 0,0 0.5,0 0.5,0 0,0 0,-0.25 0,-0.25 0,0 0.5,0 0.5,0 0,0 0,-0.25 0,-0.25 0,0 0.75,0 0.75,0 0,0 0,-0.25 0,-0.25 0,0 0.5,0 0.5,0 0,0 0,-0.25 0,-0.25 0,0 0.5,0 0.5,0 0,0 0,-0.25 0,-0.25 0,0 0.5,0 0.5,0 0,0 0,-0.25 0,-0.25 0,0 0.5,0 0.5,0 0,0 0,-0.25 0,-0.25 0,0 0.25,0 0.25,0 0,0 0,-0.25 0,-0.25 0,0 0.5,0 0.5,0 0,0 0,-0.25 0,-0.25 0,0 0.5,0 0.5,0 0,0 0,-0.25 0,-0.25 0,0 0.5,0 0.5,0 0,0 0,-0.25 0,-0.25 0,0 0.5,0 0.5,0 0,0 0,-0.25 0,-0.25 0,0 0.5,0 0.5,0 0,0 0,-0.25 0,-0.25 0,0 0.5,0 0.5,0 0,0 0,-0.25 0,-0.25 0,0 0.5,0 0.5,0 0,0 0,-0.25 0,-0.25 0,0 0.25,0 0.25,0 0,0 0,-0.25 0,-0.25 0,0 0.5,0 0.5,0 0,0 0,-0.25 0,-0.25 0,0 0.5,0 0.5,0 0,0 0,-0.25 0,-0.25 0,0 0.5,0 0.5,0 0,0 0,-0.25 0,-0.25 0,0 0.5,0 0.5,0 0,0 0,-0.25 0,-0.25 0,0 0.25,0 0.25,0 0,0 0,-0.25 0,-0.25 0,0 0.5,0 0.5,0 0,0 0,-0.25 0,-0.25 0,0 0.5,0 0.5,0 0,0 0,-0.25 0,-0.25 0,0 0.5,0 0.5,0 0,0 0,-0.25 0,-0.25 0,0 0.25,0 0.25,0 0,0 0,-0.25 0,-0.25 0,0 0.5,0 0.5,0 0,0 0,-0.25 0,-0.25 0,0 0.5,0 0.5,0 0,0 0,-0.25 0,-0.25 0,0 0.25,0 0.25,0 0,0 0,-0.25 0,-0.25 0,0 0.5,0 0.5,0 0,0 0,-0.25 0,-0.25 0,0 0.5,0 0.5,0 0,0 0,-0.25 0,-0.25 0,0 0.25,0 0.25,0 0,0 0,-0.25 0,-0.25 0,0 0.5,0 0.5,0 0,0 0,-0.25 0,-0.25 0,0 0.5,0 0.5,0 0,0 0,-0.25 0,-0.25 0,0 0.25,0 0.25,0 0,0 0,-0.25 0,-0.25 0,0 0.5,0 0.5,0 0,0 0,-0.25 0,-0.25 0,0 0.25,0 0.25,0 0,0 0,-0.25 0,-0.25 0,0 0.5,0 0.5,0 0,0 0,-0.25 0,-0.25 0,0 0.5,0 0.5,0 0,0 0,-0.25 0,-0.25 0,0 0.25,0 0.25,0 0,0 0,-0.25 0,-0.25 0,0 0.5,0 0.5,0 0,0 0,-0.25 0,-0.25 0,0 0.25,0 0.25,0 0,0 0,-0.25 0,-0.25 0,0 0.5,0 0.5,0 0,0 0,-0.25 0,-0.25 0,0 0.5,0 0.5,0 0,0 0,-0.25 0,-0.25 0,0 0.25,0 0.25,0 0,0 0,-0.25 0,-0.25 0,0 0.5,0 0.5,0 0,0 0,-0.25 0,-0.25 0,0 0.25,0 0.25,0 0,0 0,-0.25 0,-0.25 0,0 0.5,0 0.5,0 0,0 0,-0.25 0,-0.25 0,0 0.25,0 0.25,0 0,0 0,-0.25 0,-0.25 0,0 0.5,0 0.5,0 0,0 0,-0.25 0,-0.25 0,0 0.25,0 0.25,0 0,0 0,-0.25 0,-0.25 0,0 0.5,0 0.5,0 0,0 0,-0.25 0,-0.25 0,0 0.25,0 0.25,0 0,0 0,-0.25 0,-0.25 0,0 0.5,0 0.5,0 0,0 0,-0.25 0,-0.25 0,0 0.25,0 0.25,0 0,0 0,-0.25 0,-0.25 0,0 0.5,0 0.5,0 0,0 0,-0.25 0,-0.25 0,0 0.25,0 0.25,0 0,0 0,-0.25 0,-0.25 0,0 0.5,0 0.5,0 0,0 0,-0.25 0,-0.25 0,0 0.25,0 0.25,0 0,0 0,-0.25 0,-0.25 0,0 0.25,0 0.25,0 0,0 0,-0.25 0,-0.25 0,0 0.5,0 0.5,0 0,0 0,-0.25 0,-0.25 0,0 0.25,0 0.25,0 0,0 0,-0.25 0,-0.25 0,0 0.5,0 0.5,0 0,0 0,-0.25 0,-0.25 0,0 0.25,0 0.25,0 0,0 0,-0.25 0,-0.25 0,0 0.5,0 0.5,0 0,0 0,-0.25 0,-0.25 0,0 0.25,0 0.25,0 0,0 0,-0.25 0,-0.25 0,0 0.5,0 0.5,0 0,0 0,-0.25 0,-0.25 0,0 0.25,0 0.25,0 0,0 0,-0.25 0,-0.25 0,0 0.25,0 0.25,0 0,0 0,-0.25 0,-0.25 0,0 0.5,0 0.5,0 0,0 0,-0.25 0,-0.25 0,0 0.25,0 0.25,0 0,0 0,-0.25 0,-0.25 0,0 0.25,0 0.25,0 0,0 0,-0.25 0,-0.25 0,0 0.5,0 0.5,0 0,0 0,-0.25 0,-0.25 0,0 0.25,0 0.25,0 0,0 0,-0.25 0,-0.25 0,0 0.5,0 0.5,0 0,0 0,-0.25 0,-0.25 0,0 0.25,0 0.25,0 0,0 0,-0.25 0,-0.25 0,0 0.25,0 0.25,0 0,0 0,-0.25 0,-0.25 0,0 0.5,0 0.5,0 0,0 0,-0.25 0,-0.25 0,0 0.25,0 0.25,0 0,0 0,-0.25 0,-0.25 0,0 0.25,0 0.25,0 0,0 0,-0.25 0,-0.25 0,0 0.5,0 0.5,0 0,0 0,-0.25 0,-0.25 0,0 0.25,0 0.25,0 0,0 0,-0.25 0,-0.25 0,0 0.5,0 0.5,0 0,0 0,-0.25 0,-0.25 0,0 0.25,0 0.25,0 0,0 0,-0.25 0,-0.25 0,0 0.25,0 0.25,0 0,0 0,-0.25 0,-0.25 0,0 0.5,0 0.5,0 0,0 0,-0.25 0,-0.25 0,0 0.25,0 0.25,0 0,0 0,-0.25 0,-0.25 0,0 0.25,0 0.25,0 0,0 0,-0.25 0,-0.25 0,0 0.5,0 0.5,0 0,0 0,-0.25 0,-0.25 0,0 0.25,0 0.25,0 0,0 0,-0.25 0,-0.25 0,0 0.25,0 0.25,0 0,0 0,-0.25 0,-0.25 0,0 0.25,0 0.25,0 0,0 0,-0.25 0,-0.25 0,0 0.5,0 0.5,0 0,0 0,-0.25 0,-0.25 0,0 0.25,0 0.25,0 0,0 0,-0.25 0,-0.25 0,0 0.25,0 0.25,0 0,0 0,-0.25 0,-0.25 0,0 0.5,0 0.5,0 0,0 0,-0.25 0,-0.25 0,0 0.25,0 0.25,0 0,0 0,-0.25 0,-0.25 0,0 0.25,0 0.25,0 0,0 0,-0.25 0,-0.25 0,0 0.5,0 0.5,0 0,0 0,-0.25 0,-0.25 0,0 0.25,0 0.25,0 0,0 0,-0.25 0,-0.25 0,0 0.25,0 0.25,0 0,0 0,-0.25 0,-0.25 0,0 0.25,0 0.25,0 0,0 0,-0.25 0,-0.25 0,0 0.5,0 0.5,0 0,0 0,-0.25 0,-0.25 0,0 0.25,0 0.25,0 0,0 0,-0.25 0,-0.25 0,0 0.25,0 0.25,0 0,0 0,-0.25 0,-0.25 0,0 0.5,0 0.5,0 0,0 0,-0.25 0,-0.25 0,0 0.25,0 0.25,0 0,0 0,-0.25 0,-0.25 0,0 0.25,0 0.25,0 0,0 0,-0.25 0,-0.25 0,0 0.25,0 0.25,0 0,0 0,-0.25 0,-0.25 0,0 0.5,0 0.5,0 0,0 0,-0.25 0,-0.25 0,0 0.25,0 0.25,0 0,0 0,-0.25 0,-0.25 0,0 0.25,0 0.25,0 0,0 0,-0.25 0,-0.25 0,0 0.25,0 0.25,0 0,0 0,-0.25 0,-0.25 0,0 0.5,0 0.5,0 0,0 0,-0.25 0,-0.25 0,0 0.25,0 0.25,0 0,0 0,-0.25 0,-0.25 0,0 0.25,0 0.25,0 0,0 0,-0.25 0,-0.25 0,0 0.25,0 0.25,0 0,0 0,-0.25 0,-0.25 0,0 0.5,0 0.5,0 0,0 0,-0.25 0,-0.25 0,0 0.25,0 0.25,0 0,0 0,-0.25 0,-0.25 0,0 0.25,0 0.25,0 0,0 0,-0.25 0,-0.25 0,0 0.25,0 0.25,0 0,0 0,-0.25 0,-0.25 0,0 0.25,0 0.25,0 0,0 0,-0.25 0,-0.25 0,0 0.5,0 0.5,0 0,0 0,-0.25 0,-0.25 0,0 0.25,0 0.25,0 0,0 0,-0.25 0,-0.25 0,0 0.25,0 0.25,0 0,0 0,-0.25 0,-0.25 0,0 0.25,0 0.25,0 0,0 0,-0.25 0,-0.25 0,0 0.5,0 0.5,0 0,0 0,-0.25 0,-0.25 0,0 0.25,0 0.25,0 0,0 0,-0.25 0,-0.25 0,0 0.25,0 0.25,0 0,0 0,-0.25 0,-0.25 0,0 0.25,0 0.25,0 0,0 0,-0.25 0,-0.25 0,0 0.25,0 0.25,0 0,0 0,-0.25 0,-0.25 0,0 0.5,0 0.5,0 0,0 0,-0.25 0,-0.25 0,0 0.25,0 0.25,0 0,0 0,-0.25 0,-0.25 0,0 0.25,0 0.25,0 0,0 0,-0.25 0,-0.25 0,0 0.25,0 0.25,0 0,0 0,-0.25 0,-0.25 0,0 0.25,0 0.25,0 0,0 0,-0.25 0,-0.25 0,0 0.5,0 0.5,0 0,0 0,-0.25 0,-0.25 0,0 0.25,0 0.25,0 0,0 0,-0.25 0,-0.25 0,0 0.25,0 0.25,0 0,0 0,-0.25 0,-0.25 0,0 0.25,0 0.25,0 0,0 0,-0.25 0,-0.25 0,0 0.25,0 0.25,0 0,0 0,-0.25 0,-0.25 0,0 0.25,0 0.25,0 0,0 0,-0.25 0,-0.25 0,0 0.5,0 0.5,0 0,0 0,-0.25 0,-0.25 0,0 0.25,0 0.25,0 0,0 0,-0.25 0,-0.25 0,0 0.25,0 0.25,0 0,0 0,-0.25 0,-0.25 0,0 0.25,0 0.25,0 0,0 0,-0.25 0,-0.25 0,0 0.25,0 0.25,0 0,0 0,-0.25 0,-0.25 0,0 0.25,0 0.25,0 0,0 0,-0.25 0,-0.25 0,0 0.5,0 0.5,0 0,0 0,-0.25 0,-0.25 0,0 0.25,0 0.25,0 0,0 0,-0.25 0,-0.25 0,0 0.25,0 0.25,0 0,0 0,-0.25 0,-0.25 0,0 0.25,0 0.25,0 0,0 0,-0.25 0,-0.25 0,0 0.25,0 0.25,0 0,0 0,-0.25 0,-0.25 0,0 0.25,0 0.25,0 0,0 0,-0.25 0,-0.25 0,0 0.25,0 0.25,0 0,0 0,-0.25 0,-0.25 0,0 0.5,0 0.5,0 0,0 0,-0.25 0,-0.25 0,0 0.25,0 0.25,0 0,0 0,-0.25 0,-0.25 0,0 0.25,0 0.25,0 0,0 0,-0.25 0,-0.25 0,0 0.25,0 0.25,0 0,0 0,-0.25 0,-0.25 0,0 0.25,0 0.25,0 0,0 0,-0.25 0,-0.25 0,0 0.25,0 0.25,0 0,0 0,-0.25 0,-0.25 0,0 0.25,0 0.25,0 0,0 0,-0.25 0,-0.25 0,0 0.25,0 0.25,0 0,0 0,-0.25 0,-0.25 0,0 0.25,0 0.25,0 0,0 0,-0.25 0,-0.25 0,0 0.5,0 0.5,0 0,0 0,-0.25 0,-0.25 0,0 0.25,0 0.25,0 0,0 0,-0.25 0,-0.25 0,0 0.25,0 0.25,0 0,0 0,-0.25 0,-0.25 0,0 0.25,0 0.25,0 0,0 0,-0.25 0,-0.25 0,0 0.25,0 0.25,0 0,0 0,-0.25 0,-0.25 0,0 0.25,0 0.25,0 0,0 0,-0.25 0,-0.25 0,0 0.25,0 0.25,0 0,0 0,-0.25 0,-0.25 0,0 0.25,0 0.25,0 0,0 0,-0.25 0,-0.25 0,0 0.25,0 0.25,0 0,0 0,-0.25 0,-0.25 0,0 0.25,0 0.25,0 0,0 0,-0.25 0,-0.25 0,0 0.25,0 0.25,0 0,0 0,-0.25 0,-0.25 0,0 0.25,0 0.25,0 0,0 0,-0.25 0,-0.25 0,0 0.25,0 0.25,0 0,0 0,-0.25 0,-0.25 0,0 0.25,0 0.25,0 0,0 0,-0.25 0,-0.25 0,0 0.25,0 0.25,0 0,0 0,-0.25 0,-0.25 0,0 0.25,0 0.25,0 0,0 0,-0.25 0,-0.25 0,0 0.25,0 0.25,0 0,0 0,-0.25 0,-0.25 0,0 0.25,0 0.25,0 0,0 0,-0.25 0,-0.25 0,0 0.25,0 0.25,0 0,0 0,-0.25 0,-0.25 0,0 0.25,0 0.25,0 0,0 0,-0.25 0,-0.25 0,0 0.25,0 0.25,0 0,0 0,-0.25 0,-0.25 0,0 0.25,0 0.25,0 0,0 0,-0.25 0,-0.25 0,0 0.25,0 0.25,0 0,0 0,-0.25 0,-0.25 0,0 0.25,0 0.25,0 0,0 0,-0.25 0,-0.25 0,0 0.25,0 0.25,0 0,0 0,-0.25 0,-0.25 0,0 0.25,0 0.25,0 0,0 0,-0.25 0,-0.25 0,0 0.25,0 0.25,0 0,0 0,-0.25 0,-0.25 0,0 0.25,0 0.25,0 0,0 0,-0.25 0,-0.25 0,0 0.25,0 0.25,0 0,0 0,-0.25 0,-0.25 0,0 0.25,0 0.25,0 0,0 0,-0.25 0,-0.25 0,0 0.25,0 0.25,0 0,0 0,-0.25 0,-0.25 0,0 0.25,0 0.25,0 0,0 0,-0.25 0,-0.25 0,0 0.25,0 0.25,0 0,0 0,-0.25 0,-0.25 0,0 0.25,0 0.25,0 0,0 0,-0.25 0,-0.25 0,0 0.25,0 0.25,0 0,0 0,-0.25 0,-0.25 0,0 0.25,0 0.25,0 0,0 0,-0.25 0,-0.25 0,0 0.25,0 0.25,0 0,0 0,-0.5 0,-0.5 0,0 0.25,0 0.25,0 0,0 0,-0.25 0,-0.25 0,0 0.25,0 0.25,0 0,0 0,-0.25 0,-0.25 0,0 0.25,0 0.25,0 0,0 0,-0.25 0,-0.25 0,0 0.25,0 0.25,0 0,0 0,-0.25 0,-0.25 0,0 0.25,0 0.25,0 0,0 0,-0.25 0,-0.25 0,0 0.25,0 0.25,0 0,0 0,-0.25 0,-0.25 0,0 0.25,0 0.25,0 0,0 0,-0.25 0,-0.25 0,0 0.25,0 0.25,0 0,0 0,-0.25 0,-0.25 0,0 0.25,0 0.25,0 0,0 0,-0.25 0,-0.25 0,0 0.25,0 0.25,0 0,0 0,-0.5 0,-0.5 0,0 0.25,0 0.25,0 0,0 0,-0.25 0,-0.25 0,0 0.25,0 0.25,0 0,0 0,-0.25 0,-0.25 0,0 0.25,0 0.25,0 0,0 0,-0.25 0,-0.25 0,0 0.25,0 0.25,0 0,0 0,-0.25 0,-0.25 0,0 0.25,0 0.25,0 0,0 0,-0.25 0,-0.25 0,0 0.25,0 0.25,0 0,0 0,-0.5 0,-0.5 0,0 0.25,0 0.25,0 0,0 0,-0.25 0,-0.25 0,0 0.25,0 0.25,0 0,0 0,-0.25 0,-0.25 0,0 0.25,0 0.25,0 0,0 0,-0.25 0,-0.25 0,0 0.25,0 0.25,0 0,0 0,-0.25 0,-0.25 0,0 0.25,0 0.25,0 0,0 0,-0.25 0,-0.25 0,0 0.25,0 0.25,0 0,0 0,-0.5 0,-0.5 0,0 0.25,0 0.25,0 0,0 0,-0.25 0,-0.25 0,0 0.25,0 0.25,0 0,0 0,-0.25 0,-0.25 0,0 0.25,0 0.25,0 0,0 0,-0.25 0,-0.25 0,0 0.25,0 0.25,0 0,0 0,-0.25 0,-0.25 0,0 0.25,0 0.25,0 0,0 0,-0.5 0,-0.5 0,0 0.25,0 0.25,0 0,0 0,-0.25 0,-0.25 0,0 0.25,0 0.25,0 0,0 0,-0.25 0,-0.25 0,0 0.25,0 0.25,0 0,0 0,-0.5 0,-0.5 0,0 0.25,0 0.25,0 0,0 0,-0.25 0,-0.25 0,0 0.25,0 0.25,0 0,0 0,-0.25 0,-0.25 0,0 0.25,0 0.25,0 0,0 0,-0.25 0,-0.25 0,0 0.25,0 0.25,0 0,0 0,-0.5 0,-0.5 0,0 0.25,0 0.25,0 0,0 0,-0.25 0,-0.25 0,0 0.25,0 0.25,0 0,0 0,-0.25 0,-0.25 0,0 0.25,0 0.25,0 0,0 0,-0.25 0,-0.25 0,0 0.25,0 0.25,0 0,0 0,-0.5 0,-0.5 0,0 0.25,0 0.25,0 0,0 0,-0.25 0,-0.25 0,0 0.25,0 0.25,0 0,0 0,-0.25 0,-0.25 0,0 0.25,0 0.25,0 0,0 0,-0.5 0,-0.5 0,0 0.25,0 0.25,0 0,0 0,-0.25 0,-0.25 0,0 0.25,0 0.25,0 0,0 0,-0.25 0,-0.25 0,0 0.25,0 0.25,0 0,0 0,-0.5 0,-0.5 0,0 0.25,0 0.25,0 0,0 0,-0.25 0,-0.25 0,0 0.25,0 0.25,0 0,0 0,-0.25 0,-0.25 0,0 0.25,0 0.25,0 0,0 0,-0.5 0,-0.5 0,0 0.25,0 0.25,0 0,0 0,-0.25 0,-0.25 0,0 0.25,0 0.25,0 0,0 0,-0.5 0,-0.5 0,0 0.25,0 0.25,0 0,0 0,-0.25 0,-0.25 0,0 0.25,0 0.25,0 0,0 0,-0.25 0,-0.25 0,0 0.25,0 0.25,0 0,0 0,-0.5 0,-0.5 0,0 0.25,0 0.25,0 0,0 0,-0.25 0,-0.25 0,0 0.25,0 0.25,0 0,0 0,-0.5 0,-0.5 0,0 0.25,0 0.25,0 0,0 0,-0.25 0,-0.25 0,0 0.25,0 0.25,0 0,0 0,-0.25 0,-0.25 0,0 0.25,0 0.25,0 0,0 0,-0.5 0,-0.5 0,0 0.25,0 0.25,0 0,0 0,-0.25 0,-0.25 0,0 0.25,0 0.25,0 0,0 0,-0.5 0,-0.5 0,0 0.25,0 0.25,0 0,0 0,-0.25 0,-0.25 0,0 0.25,0 0.25,0 0,0 0,-0.5 0,-0.5 0,0 0.25,0 0.25,0 0,0 0,-0.25 0,-0.25 0,0 0.25,0 0.25,0 0,0 0,-0.5 0,-0.5 0,0 0.25,0 0.25,0 0,0 0,-0.25 0,-0.25 0,0 0.25,0 0.25,0 0,0 0,-0.5 0,-0.5 0,0 0.25,0 0.25,0 0,0 0,-0.25 0,-0.25 0,0 0.25,0 0.25,0 0,0 0,-0.5 0,-0.5 0,0 0.25,0 0.25,0 0,0 0,-0.25 0,-0.25 0,0 0.25,0 0.25,0 0,0 0,-0.5 0,-0.5 0,0 0.25,0 0.25,0 0,0 0,-0.5 0,-0.5 0,0 0.25,0 0.25,0 0,0 0,-0.25 0,-0.25 0,0 0.25,0 0.25,0 0,0 0,-0.5 0,-0.5 0,0 0.25,0 0.25,0 0,0 0,-0.25 0,-0.25 0,0 0.25,0 0.25,0 0,0 0,-0.5 0,-0.5 0,0 0.25,0 0.25,0 0,0 0,-0.5 0,-0.5 0,0 0.25,0 0.25,0 0,0 0,-0.25 0,-0.25 0,0 0.25,0 0.25,0 0,0 0,-0.5 0,-0.5 0,0 0.25,0 0.25,0 0,0 0,-0.5 0,-0.5 0,0 0.25,0 0.25,0 0,0 0,-0.25 0,-0.25 0,0 0.25,0 0.25,0 0,0 0,-0.5 0,-0.5 0,0 0.25,0 0.25,0 0,0 0,-0.5 0,-0.5 0,0 0.25,0 0.25,0 0,0 0,-0.25 0,-0.25 0,0 0.25,0 0.25,0 0,0 0,-0.5 0,-0.5 0,0 0.25,0 0.25,0 0,0 0,-0.5 0,-0.5 0,0 0.25,0 0.25,0 0,0 0,-0.5 0,-0.5 0,0 0.25,0 0.25,0 0,0 0,-0.25 0,-0.25 0,0 0.25,0 0.25,0 0,0 0,-0.5 0,-0.5 0,0 0.25,0 0.25,0 0,0 0,-0.5 0,-0.5 0,0 0.25,0 0.25,0 0,0 0,-0.5 0,-0.5 0,0 0.25,0 0.25,0 0,0 0,-0.5 0,-0.5 0,0 0.25,0 0.25,0 0,0 0,-0.5 0,-0.5 0,0 0.25,0 0.25,0 0,0 0,-0.5 0,-0.5 0,0 0.25,0 0.25,0 0,0 0,-0.25 0,-0.25 0,0 0.25,0 0.25,0 0,0 0,-0.5 0,-0.5 0,0 0.25,0 0.25,0 0,0 0,-0.5 0,-0.5 0,0 0.25,0 0.25,0 0,0 0,-0.5 0,-0.5 0,0 0.25,0 0.25,0 0,0 0,-0.5 0,-0.5 0,0 0.25,0 0.25,0 0,0 0,-0.5 0,-0.5 0,0 0.25,0 0.25,0 0,0 0,-0.5 0,-0.5 0,0 0.25,0 0.25,0 0,0 0,-0.5 0,-0.5 0,0 0.25,0 0.25,0 0,0 0,-0.5 0,-0.5 0,0 0.25,0 0.25,0 0,0 0,-0.5 0,-0.5 0,0 0.25,0 0.25,0 0,0 0,-0.75 0,-0.75 0,0 0.25,0 0.25,0 0,0 0,-0.5 0,-0.5 0,0 0.25,0 0.25,0 0,0 0,-0.5 0,-0.5 0,0 0.25,0 0.25,0 0,0 0,-0.5 0,-0.5 0,0 0.25,0 0.25,0 0,0 0,-0.5 0,-0.5 0,0 0.25,0 0.25,0 0,0 0,-0.5 0,-0.5 0,0 0.25,0 0.25,0 0,0 0,-0.5 0,-0.5 0,0 0.25,0 0.25,0 0,0 0,-0.75 0,-0.75 0,0 0.25,0 0.25,0 0,0 0,-0.5 0,-0.5 0,0 0.25,0 0.25,0 0,0 0,-0.75 0,-0.75 0,0 0.25,0 0.25,0 0,0 0,-0.5 0,-0.5 0,0 0.25,0 0.25,0 0,0 0,-0.75 0,-0.75 0,0 0.25,0 0.25,0 0,0 0,-0.5 0,-0.5 0,0 0.25,0 0.25,0 0,0 0,-0.75 0,-0.75 0,0 0.25,0 0.25,0 0,0 0,-0.5 0,-0.5 0,0 0.25,0 0.25,0 0,0 0,-0.75 0,-0.75 0,0 0.25,0 0.25,0 0,0 0,-0.5 0,-0.5 0,0 0.25,0 0.25,0 0,0 0,-0.75 0,-0.75 0,0 0.25,0 0.25,0 0,0 0,-0.75 0,-0.75 0,0 0.25,0 0.25,0 0,0 0,-0.75 0,-0.75 0,0 0.25,0 0.25,0 0,0 0,-0.75 0,-0.75 0,0 0.25,0 0.25,0 0,0 0,-0.75 0,-0.75 0,0 0.25,0 0.25,0 0,0 0,-0.75 0,-0.75 0,0 0.25,0 0.25,0 0,0 0,-0.75 0,-0.75 0,0 0.25,0 0.25,0 0,0 0,-0.75 0,-0.75 0,0 0.25,0 0.25,0 0,0 0,-0.75 0,-0.75 0,0 0.25,0 0.25,0 0,0 0,-1 0,-1 0,0 0.25,0 0.25,0 0,0 0,-1 0,-1 0,0 0.25,0 0.25,0 0,0 0,-0.75 0,-0.75 0,0 0.25,0 0.25,0 0,0 0,-1 0,-1 0,0 0.25,0 0.25,0 0,0 0,-1 0,-1 0,0 0.25,0 0.25,0 0,0 0,-1 0,-1 0,0 0.25,0 0.25,0 0,0 0,-1.25 0,-1.25 0,0 0.25,0 0.25,0 0,0 0,-1.25 0,-1.25 0,0 0.25,0 0.25,0 0,0 0,-1.25 0,-1.25 0,0 0.25,0 0.25,0 0,0 0,-1.25 0,-1.25 0,0 0.25,0 0.25,0 0,0 0,-1.5 0,-1.5 0,0 0.25,0 0.25,0 0,0 0,-2 0,-2 0,0 0.25,0 0.25,0 0,0 0,-2 0,-2 0,0 0.25,0 0.25,0 0,0 0,-3.25 0,-3.25 0,0 0.25,0 0.25,0 0,0 0,-7.75 0,-7.75 0,0 -0.25,0 -0.25,0 0,0 0,-4.75 0,-4.75 0,0 -0.25,0 -0.25,0 0,0 0,-2 0,-2 0,0 -0.25,0 -0.25,0 0,0 0,-1.5 0,-1.5 0,0 -0.25,0 -0.25,0 0,0 0,-1.5 0,-1.5 0,0 -0.25,0 -0.25,0 0,0 0,-1.5 0,-1.5 0,0 -0.25,0 -0.25,0 0,0 0,-1.5 0,-1.5 0,0 -0.25,0 -0.25,0 0,0 0,-1.25 0,-1.25 0,0 -0.25,0 -0.25,0 0,0 0,-0.75 0,-0.75 0,0 -0.25,0 -0.25,0 0,0 0,-0.75 0,-0.75 0,0 -0.25,0 -0.25,0 0,0 0,-1 0,-1 0,0 -0.25,0 -0.25,0 0,0 0,-0.75 0,-0.75 0,0 -0.25,0 -0.25,0 0,0 0,-0.75 0,-0.75 0,0 -0.25,0 -0.25,0 0,0 0,-1 0,-1 0,0 -0.25,0 -0.25,0 0,0 0,-0.75 0,-0.75 0,0 -0.25,0 -0.25,0 0,0 0,-0.75 0,-0.75 0,0 -0.25,0 -0.25,0 0,0 0,-0.75 0,-0.75 0,0 -0.25,0 -0.25,0 0,0 0,-0.5 0,-0.5 0,0 -0.25,0 -0.25,0 0,0 0,-0.5 0,-0.5 0,0 -0.25,0 -0.25,0 0,0 0,-0.75 0,-0.75 0,0 -0.25,0 -0.25,0 0,0 0,-0.5 0,-0.5 0,0 -0.25,0 -0.25,0 0,0 0,-0.5 0,-0.5 0,0 -0.25,0 -0.25,0 0,0 0,-0.5 0,-0.5 0,0 -0.25,0 -0.25,0 0,0 0,-0.75 0,-0.75 0,0 -0.25,0 -0.25,0 0,0 0,-0.5 0,-0.5 0,0 -0.25,0 -0.25,0 0,0 0,-0.5 0,-0.5 0,0 -0.25,0 -0.25,0 0,0 0,-0.5 0,-0.5 0,0 -0.25,0 -0.25,0 0,0 0,-0.5 0,-0.5 0,0 -0.25,0 -0.25,0 0,0 0,-0.5 0,-0.5 0,0 -0.25,0 -0.25,0 0,0 0,-0.5 0,-0.5 0,0 -0.25,0 -0.25,0 0,0 0,-0.25 0,-0.25 0,0 -0.25,0 -0.25,0 0,0 0,-0.5 0,-0.5 0,0 -0.25,0 -0.25,0 0,0 0,-0.25 0,-0.25 0,0 -0.25,0 -0.25,0 0,0 0,-0.5 0,-0.5 0,0 -0.25,0 -0.25,0 0,0 0,-0.5 0,-0.5 0,0 -0.25,0 -0.25,0 0,0 0,-0.25 0,-0.25 0,0 -0.25,0 -0.25,0 0,0 0,-0.5 0,-0.5 0,0 -0.25,0 -0.25,0 0,0 0,-0.5 0,-0.5 0,0 -0.25,0 -0.25,0 0,0 0,-0.25 0,-0.25 0,0 -0.25,0 -0.25,0 0,0 0,-0.5 0,-0.5 0,0 -0.25,0 -0.25,0 0,0 0,-0.25 0,-0.25 0,0 -0.25,0 -0.25,0 0,0 0,-0.5 0,-0.5 0,0 -0.25,0 -0.25,0 0,0 0,-0.25 0,-0.25 0,0 -0.25,0 -0.25,0 0,0 0,-0.25 0,-0.25 0,0 -0.25,0 -0.25,0 0,0 0,-0.5 0,-0.5 0,0 -0.25,0 -0.25,0 0,0 0,-0.25 0,-0.25 0,0 -0.25,0 -0.25,0 0,0 0,-0.25 0,-0.25 0,0 -0.25,0 -0.25,0 0,0 0,-0.25 0,-0.25 0,0 -0.25,0 -0.25,0 0,0 0,-0.5 0,-0.5 0,0 -0.25,0 -0.25,0 0,0 0,-0.25 0,-0.25 0,0 -0.25,0 -0.25,0 0,0 0,-0.25 0,-0.25 0,0 -0.25,0 -0.25,0 0,0 0,-0.25 0,-0.25 0,0 -0.25,0 -0.25,0 0,0 0,-0.5 0,-0.5 0,0 -0.25,0 -0.25,0 0,0 0,-0.25 0,-0.25 0,0 -0.25,0 -0.25,0 0,0 0,-0.25 0,-0.25 0,0 -0.25,0 -0.25,0 0,0 0,-0.25 0,-0.25 0,0 -0.25,0 -0.25,0 0,0 0,-0.25 0,-0.25 0,0 -0.25,0 -0.25,0 0,0 0,-0.5 0,-0.5 0,0 -0.25,0 -0.25,0 0,0 0,-0.25 0,-0.25 0,0 -0.25,0 -0.25,0 0,0 0,-0.25 0,-0.25 0,0 -0.25,0 -0.25,0 0,0 0,-0.25 0,-0.25 0,0 -0.25,0 -0.25,0 0,0 0,-0.25 0,-0.25 0,0 -0.25,0 -0.25,0 0,0 0,-0.25 0,-0.25 0,0 -0.25,0 -0.25,0 0,0 0,-0.25 0,-0.25 0,0 -0.5,0 -0.5,0 0,0 0,-0.25 0,-0.25 0,0 -0.25,0 -0.25,0 0,0 0,-0.25 0,-0.25 0,0 -0.25,0 -0.25,0 0,0 0,-0.25 0,-0.25 0,0 -0.25,0 -0.25,0 0,0 0,-0.25 0,-0.25 0,0 -0.25,0 -0.25,0 0,0 0,-0.25 0,-0.25 0,0 -0.25,0 -0.25,0 0,0 0,-0.25 0,-0.25 0,0 -0.25,0 -0.25,0 0,0 0,-0.25 0,-0.25 0,0 -0.25,0 -0.25,0 0,0 0,-0.25 0,-0.25 0,0 -0.25,0 -0.25,0 0,0 0,-0.25 0,-0.25 0,0 -0.25,0 -0.25,0 0,0 0,-0.25 0,-0.25 0,0 -0.25,0 -0.25,0 0,0 0,-0.25 0,-0.25 0,0 -0.25,0 -0.25,0 0,0 0,-0.25 0,-0.25 0,0 -0.25,0 -0.25,0 0,0 0,-0.25 0,-0.25 0,0 -0.5,0 -0.5,0 0,0 0,-0.25 0,-0.25 0,0 -0.25,0 -0.25,0 0,0 0,-0.25 0,-0.25 0,0 -0.25,0 -0.25,0 0,0 0,-0.25 0,-0.25 0,0 -0.5,0 -0.5,0 0,0 0,-0.25 0,-0.25 0,0 -0.25,0 -0.25,0 0,0 0,-0.25 0,-0.25 0,0 -0.25,0 -0.25,0 0,0 0,-0.25 0,-0.25 0,0 -0.5,0 -0.5,0 0,0 0,-0.25 0,-0.25 0,0 -0.25,0 -0.25,0 0,0 0,-0.25 0,-0.25 0,0 -0.25,0 -0.25,0 0,0 0,-0.25 0,-0.25 0,0 -0.5,0 -0.5,0 0,0 0,-0.25 0,-0.25 0,0 -0.25,0 -0.25,0 0,0 0,-0.25 0,-0.25 0,0 -0.25,0 -0.25,0 0,0 0,-0.25 0,-0.25 0,0 -0.25,0 -0.25,0 0,0 0,-0.25 0,-0.25 0,0 -0.5,0 -0.5,0 0,0 0,-0.25 0,-0.25 0,0 -0.5,0 -0.5,0 0,0 0,-0.25 0,-0.25 0,0 -0.25,0 -0.25,0 0,0 0,-0.25 0,-0.25 0,0 -0.5,0 -0.5,0 0,0 0,-0.25 0,-0.25 0,0 -0.5,0 -0.5,0 0,0 0,-0.25 0,-0.25 0,0 -0.25,0 -0.25,0 0,0 0,-0.25 0,-0.25 0,0 -0.5,0 -0.5,0 0,0 0,-0.25 0,-0.25 0,0 -0.25,0 -0.25,0 0,0 0,-0.25 0,-0.25 0,0 -0.5,0 -0.5,0 0,0 0,-0.25 0,-0.25 0,0 -0.5,0 -0.5,0 0,0 0,-0.25 0,-0.25 0,0 -0.25,0 -0.25,0 0,0 0,-0.25 0,-0.25 0,0 -0.5,0 -0.5,0 0,0 0,-0.25 0,-0.25 0,0 -0.5,0 -0.5,0 0,0 0,-0.25 0,-0.25 0,0 -0.5,0 -0.5,0 0,0 0,-0.25 0,-0.25 0,0 -0.5,0 -0.5,0 0,0 0,-0.25 0,-0.25 0,0 -0.5,0 -0.5,0 0,0 0,-0.25 0,-0.25 0,0 -0.5,0 -0.5,0 0,0 0,-0.25 0,-0.25 0,0 -0.5,0 -0.5,0 0,0 0,-0.25 0,-0.25 0,0 -0.5,0 -0.5,0 0,0 0,-0.25 0,-0.25 0,0 -0.5,0 -0.5,0 0,0 0,-0.25 0,-0.25 0,0 -0.5,0 -0.5,0 0,0 0,-0.25 0,-0.25 0,0 -0.5,0 -0.5,0 0,0 0,-0.25 0,-0.25 0,0 -0.5,0 -0.5,0 0,0 0,-0.25 0,-0.25 0,0 -0.75,0 -0.75,0 0,0 0,-0.25 0,-0.25 0,0 -0.5,0 -0.5,0 0,0 0,-0.25 0,-0.25 0,0 -0.75,0 -0.75,0 0,0 0,-0.25 0,-0.25 0,0 -0.5,0 -0.5,0 0,0 0,-0.25 0,-0.25 0,0 -0.75,0 -0.75,0 0,0 0,-0.25 0,-0.25 0,0 -0.75,0 -0.75,0 0,0 0,-0.25 0,-0.25 0,0 -0.5,0 -0.5,0 0,0 0,-0.25 0,-0.25 0,0 -0.75,0 -0.75,0 0,0 0,-0.25 0,-0.25 0,0 -0.75,0 -0.75,0 0,0 0,-0.25 0,-0.25 0,0 -0.75,0 -0.75,0 0,0 0,-0.25 0,-0.25 0,0 -0.75,0 -0.75,0 0,0 0,-0.25 0,-0.25 0,0 -1,0 -1,0 0,0 0,-0.25 0,-0.25 0,0 -0.75,0 -0.75,0 0,0 0,-0.25 0,-0.25 0,0 -0.75,0 -0.75,0 0,0 0,-0.25 0,-0.25 0,0 -1,0 -1,0 0,0 0,-0.25 0,-0.25 0,0 -1,0 -1,0 0,0 0,-0.25 0,-0.25 0,0 -1,0 -1,0 0,0 0,-0.25 0,-0.25 0,0 -1.25,0 -1.25,0 0,0 0,-0.25 0,-0.25 0,0 -1,0 -1,0 0,0 0,-0.25 0,-0.25 0,0 -1.25,0 -1.25,0 0,0 0,-0.25 0,-0.25 0,0 -1.5,0 -1.5,0 0,0 0,-0.25 0,-0.25 0,0 -1.5,0 -1.5,0 0,0 0,-0.25 0,-0.25 0,0 -1.5,0 -1.5,0 0,0 0,-0.25 0,-0.25 0,0 -2.25,0 -2.25,0 0,0 0,-0.25 0,-0.25 0,0 -2.25,0 -2.25,0 0,0 0,-0.25 0,-0.25 0,0 -12.25,0 -12.25,0 z"
           id="path3534" />
      </g>
      <g
         transform="translate(161.25,273)"
         id="g3536"
         style="fill:#d10010;fill-rule:nonzero;stroke:none">
        <path
           d="m 1.25,0 c 0,0 0,0.5 0,0.5 0,0 0.25,0 0.25,0 0,0 0,-0.5 0,-0.5 0,0 -0.25,0 -0.25,0 z M 1,0.5 c 0,0 0,0.5 0,0.5 0,0 0.25,0 0.25,0 0,0 0,-0.5 0,-0.5 0,0 -0.25,0 -0.25,0 z M 0.75,1 c 0,0 0,0.5 0,0.5 0,0 0.25,0 0.25,0 C 1,1.5 1,1 1,1 1,1 0.75,1 0.75,1 z M 0.5,1.75 c 0,0 0,0.5 0,0.5 0,0 0.25,0 0.25,0 0,0 0,-0.5 0,-0.5 0,0 -0.25,0 -0.25,0 z M 0.25,2.5 c 0,0 0,0.5 0,0.5 0,0 0.25,0 0.25,0 0,0 0,-0.5 0,-0.5 0,0 -0.25,0 -0.25,0 z M 0,3.75 c 0,0 0,0.5 0,0.5 0,0 0.25,0 0.25,0 0,0 0,-0.5 0,-0.5 0,0 -0.25,0 -0.25,0 z"
           id="path3538" />
      </g>
      <g
         transform="translate(162.75,272.5)"
         id="g3540"
         style="fill:#d10010;fill-rule:nonzero;stroke:none">
        <path
           d="m 0,0 c 0,0 0,0.5 0,0.5 0,0 0.25,0 0.25,0 0,0 0,-0.5 0,-0.5 C 0.25,0 0,0 0,0 z"
           id="path3542" />
      </g>
      <g
         transform="translate(164.5,269.25)"
         id="g3544"
         style="fill:#d10010;fill-rule:nonzero;stroke:none">
        <path
           d="m 0,0 c 0,0 0,0.5 0,0.5 0,0 0.25,0 0.25,0 0,0 0,-0.5 0,-0.5 C 0.25,0 0,0 0,0 z"
           id="path3546" />
      </g>
      <g
         transform="translate(162.75,269.5)"
         id="g3548"
         style="fill:#d10010;fill-rule:nonzero;stroke:none">
        <path
           d="m 1.75,0 c 0,0 0,0.25 0,0.25 0,0 -0.25,0 -0.25,0 0,0 0,0.25 0,0.25 0,0 -0.25,0 -0.25,0 0,0 0,0.5 0,0.5 C 1.25,1 1,1 1,1 c 0,0 0,0.5 0,0.5 0,0 -0.25,0 -0.25,0 0,0 0,0.25 0,0.25 0,0 -0.25,0 -0.25,0 0,0 0,0.5 0,0.5 0,0 -0.25,0 -0.25,0 0,0 0,0.5 0,0.5 0,0 -0.25,0 -0.25,0 0,0 0,0.5 0,0.5 0,0 0.25,0 0.25,0 0,0 0,-0.25 0,-0.25 0,0 0.25,0 0.25,0 0,0 0,-0.5 0,-0.5 0,0 0.25,0 0.25,0 0,0 0,-0.5 0,-0.5 C 0.75,2 1,2 1,2 1,2 1,1.75 1,1.75 c 0,0 0.25,0 0.25,0 0,0 0,-0.5 0,-0.5 0,0 0.25,0 0.25,0 0,0 0,-0.5 0,-0.5 0,0 0.25,0 0.25,0 0,0 0,-0.25 0,-0.25 0,0 0.25,0 0.25,0 C 2,0.5 2,0 2,0 2,0 1.75,0 1.75,0 z"
           id="path3550" />
      </g>
      <g
         transform="translate(162.5,272.75)"
         id="g3552"
         style="fill:#d10010;fill-rule:nonzero;stroke:none">
        <path
           d="m 0,0 c 0,0 0,0.5 0,0.5 0,0 0.25,0 0.25,0 0,0 0,-0.25 0,-0.25 0,0 0.25,0 0.25,0 0,0 0,-0.25 0,-0.25 C 0.5,0 0,0 0,0 z"
           id="path3554" />
      </g>
    </g>
  </g>
</svg>
