<?xml version="1.0" encoding="UTF-8" standalone="no"?>
<!-- Created with Inkscape (http://www.inkscape.org/) -->
<svg
   xmlns:dc="http://purl.org/dc/elements/1.1/"
   xmlns:cc="http://creativecommons.org/ns#"
   xmlns:rdf="http://www.w3.org/1999/02/22-rdf-syntax-ns#"
   xmlns:svg="http://www.w3.org/2000/svg"
   xmlns="http://www.w3.org/2000/svg"
   xmlns:sodipodi="http://sodipodi.sourceforge.net/DTD/sodipodi-0.dtd"
   xmlns:inkscape="http://www.inkscape.org/namespaces/inkscape"
   width="800"
   height="800"
   id="svg2"
   sodipodi:version="0.32"
   inkscape:version="0.46"
   version="1.0"
   sodipodi:docname="MTN Logo.svg"
   inkscape:output_extension="org.inkscape.output.svg.inkscape">
  <defs
     id="defs4">
    <inkscape:perspective
       sodipodi:type="inkscape:persp3d"
       inkscape:vp_x="0 : 526.18109 : 1"
       inkscape:vp_y="0 : 1000 : 0"
       inkscape:vp_z="744.09448 : 526.18109 : 1"
       inkscape:persp3d-origin="372.04724 : 350.78739 : 1"
       id="perspective10" />
    <inkscape:perspective
       id="perspective2390"
       inkscape:persp3d-origin="372.04724 : 350.78739 : 1"
       inkscape:vp_z="744.09448 : 526.18109 : 1"
       inkscape:vp_y="0 : 1000 : 0"
       inkscape:vp_x="0 : 526.18109 : 1"
       sodipodi:type="inkscape:persp3d" />
  </defs>
  <sodipodi:namedview
     id="base"
     pagecolor="#ffffff"
     bordercolor="#666666"
     borderopacity="1.0"
     inkscape:pageopacity="0.0"
     inkscape:pageshadow="2"
     inkscape:zoom="0.49497475"
     inkscape:cx="453.52278"
     inkscape:cy="365.92709"
     inkscape:document-units="px"
     inkscape:current-layer="layer1"
     showgrid="true"
     inkscape:window-width="1400"
     inkscape:window-height="964"
     inkscape:window-x="-4"
     inkscape:window-y="-4">
    <inkscape:grid
       type="xygrid"
       id="grid2452"
       visible="true"
       enabled="true" />
  </sodipodi:namedview>
  <metadata
     id="metadata7">
    <rdf:RDF>
      <cc:Work
         rdf:about="">
        <dc:format>image/svg+xml</dc:format>
        <dc:type
           rdf:resource="http://purl.org/dc/dcmitype/StillImage" />
      </cc:Work>
    </rdf:RDF>
  </metadata>
  <g
     inkscape:label="Ebene 1"
     inkscape:groupmode="layer"
     id="layer1">
    <g
       id="g2396"
       transform="matrix(5.1042801,0,0,5.1042801,-573.60148,-1006.7669)">
      <path
         style="fill:#fdca03"
         d="M 116.05222,277.36794 L 116.05222,205.86794 L 191.05222,205.86794 L 266.05222,205.86794 L 266.05222,277.36794 L 266.05222,348.86794 L 191.05222,348.86794 L 116.05222,348.86794 L 116.05222,277.36794 z"
         id="path2408"
         sodipodi:nodetypes="ccccccccc" />
      <path
         style="fill:#006c92"
         d="M 164.65878,303.92448 C 144.23439,300.61264 129.26603,294.64508 122.22586,287.0074 C 118.53304,283.00117 118.05929,281.93661 118.05929,277.64486 C 118.05929,270.80443 122.52414,265.78856 133.37261,260.44168 C 159.53375,247.54764 208.55215,245.85064 239.90366,256.75362 C 256.85632,262.64917 265.96899,271.81269 263.70318,280.68595 C 262.63823,284.85647 257.2141,290.11343 250.1408,293.83035 C 242.22363,297.9907 237.49532,299.60541 224.55929,302.56636 C 212.55638,305.31373 178.05112,306.09606 164.65878,303.92448 z"
         id="path2398"
         sodipodi:nodetypes="csssssssc" />
    </g>
    <flowRoot
       xml:space="preserve"
       id="flowRoot2426"
       style="font-size:18px;font-style:normal;font-weight:normal;fill:#000000;fill-opacity:1;stroke:none;stroke-width:1px;stroke-linecap:butt;stroke-linejoin:miter;stroke-opacity:1;font-family:Bitstream Vera Sans"><flowRegion
         id="flowRegion2428"><rect
           id="rect2430"
           width="110.10663"
           height="52.527931"
           x="-399.01025"
           y="600.82397" /></flowRegion><flowPara
         id="flowPara2432"></flowPara></flowRoot>    <path
       style="font-size:144px;font-style:italic;font-variant:normal;font-weight:normal;font-stretch:normal;text-align:start;line-height:125%;writing-mode:lr-tb;text-anchor:start;fill:#ffffff;fill-opacity:1;stroke:none;stroke-width:1px;stroke-linecap:butt;stroke-linejoin:miter;stroke-opacity:1;font-family:Arial Black;-inkscape-font-specification:Arial Black Italic"
       d="M 192.16605,337.99356 L 249.89848,337.99356 L 242.81511,424.39856 L 294.36033,337.99356 L 351.89907,337.99356 L 303.64135,480 L 267.8006,480 L 304.60392,371.70314 L 240,480 L 207.54967,480 L 216.64911,371.70314 L 179.8458,480 L 143.90833,480 L 192.16605,337.99356 z M 523.4498,337.99356 L 564.42438,337.99356 L 591.20189,416.55237 L 617.89473,337.99356 L 659.25669,337.99356 L 610.99904,480 L 569.63696,480 L 542.95633,402.02239 L 516.45723,480 L 475.19202,480 L 523.4498,337.99356 z"
       id="flowRoot2436"
       sodipodi:nodetypes="ccccccccccccccccccccccccc" />
    <path
       style="font-size:144px;font-style:italic;font-variant:normal;font-weight:normal;font-stretch:normal;text-align:start;line-height:125%;writing-mode:lr-tb;text-anchor:start;fill:#fdca03;fill-opacity:1;stroke:none;stroke-width:1px;stroke-linecap:butt;stroke-linejoin:miter;stroke-opacity:1;font-family:Arial Black;-inkscape-font-specification:Arial Black Italic"
       d="M 369.81733,337.99356 L 503.28089,337.99356 L 491.35932,373.07987 L 446.58071,373.07987 L 418.18414,456.38938 L 374.2778,456.38938 L 402.67438,373.07987 L 357.89574,373.07987 L 369.81733,337.99356 z"
       id="flowRoot2455"
       sodipodi:nodetypes="ccccccccc" />
    <path
       style="fill:#ff0000;fill-opacity:1;stroke:#ff0000;stroke-width:1.08122122;stroke-linecap:butt;stroke-linejoin:miter;stroke-miterlimit:4;stroke-opacity:1"
       d="M 373.02247,461.54348 L 415.89042,461.54348 L 410.01934,479.4594 L 367.15139,479.4594 L 373.02247,461.54348 z"
       id="rect2464"
       sodipodi:nodetypes="ccccc" />
  </g>
</svg>
